SplineFontDB: 3.0
FontName: MJ_Mat-Italic
FullName: MJ_Mat-Italic
FamilyName: MJ_Mat
Weight: Normal
Copyright: Copyright (c) 2009-2010 Design Science, Inc.
Version: 3.0
ItalicAngle: 0
UnderlinePosition: -100
UnderlineWidth: 50
Ascent: 800
Descent: 200
InvalidEm: 0
sfntRevision: 0x00030000
LayerCount: 2
Layer: 0 0 "Back" 1
Layer: 1 0 "Fore" 0
XUID: [1021 555 1361428464 7539]
StyleMap: 0x0001
FSType: 0
OS2Version: 3
OS2_WeightWidthSlopeOnly: 0
OS2_UseTypoMetrics: 0
CreationTime: 1255375311
ModificationTime: 1520407442
PfmFamily: 81
TTFWeight: 400
TTFWidth: 5
LineGap: 0
VLineGap: 0
Panose: 0 0 0 0 0 0 0 0 0 0
OS2TypoAscent: 717
OS2TypoAOffset: 0
OS2TypoDescent: -218
OS2TypoDOffset: 0
OS2TypoLinegap: 0
OS2WinAscent: 717
OS2WinAOffset: 0
OS2WinDescent: 218
OS2WinDOffset: 0
HheadAscent: 717
HheadAOffset: 0
HheadDescent: -218
HheadDOffset: 0
OS2SubXSize: 650
OS2SubYSize: 700
OS2SubXOff: 0
OS2SubYOff: 140
OS2SupXSize: 650
OS2SupYSize: 700
OS2SupXOff: 0
OS2SupYOff: 480
OS2StrikeYSize: 49
OS2StrikeYPos: 258
OS2CapHeight: 680
OS2XHeight: 441
OS2Vendor: 'PfEd'
OS2CodePages: 2000008f.5e030000
OS2UnicodeRanges: 800000ef.1000eced.00000000.00000000
MarkAttachClasses: 1
DEI: 91125
LangName: 1033 "" "" "" "FontForge 2.0 : MJ_Mat-Italic" "" "Version 1.1" "" "" "" "" "" "" "" "Copyright (c) 2009-2010, Design Science, Inc. (<www.mathjax.org>),+AAoA-with Reserved Font Name MathJax_Math.+AAoACgAA-This Font Software is licensed under the SIL Open Font License, Version 1.1.+AAoA-This license available with a FAQ at:+AAoA-http://scripts.sil.org/OFL" "http://scripts.sil.org/OFL" "" "MJ_Mat" "Italic"
Encoding: UnicodeBmp
UnicodeInterp: none
NameList: AGL For New Fonts
DisplaySize: -48
AntiAlias: 1
FitToEm: 0
WinInfo: 38 38 12
BeginPrivate: 6
BlueValues 23 [-22 0 441 443 680 704]
OtherBlues 11 [-205 -204]
BlueScale 7 0.03963
BlueShift 1 0
StdHW 4 [50]
StdVW 4 [50]
EndPrivate
BeginChars: 65537 100

StartChar: .notdef
Encoding: 65536 -1 0
Width: 250
Flags: MW
HStem: 0 50<100 150 100 200> 483 50<100 150 100 100>
VStem: 50 50<50 50 50 483> 150 50<50 483 483 483>
LayerCount: 2
Fore
SplineSet
50 0 m 1
 50 533 l 1
 200 533 l 1
 200 0 l 1
 50 0 l 1
100 50 m 1
 150 50 l 1
 150 483 l 1
 100 483 l 1
 100 50 l 1
EndSplineSet
EndChar

StartChar: slash
Encoding: 47 47 2
Width: 778
GlyphClass: 2
Flags: MW
HStem: 696 20G<614.5 623.5>
LayerCount: 2
Fore
SplineSet
159 -215 m 0
 148 -215 139 -209 139 -197 c 0
 139 -193 140 -189 144 -183 c 0
 154 -163 599 704 602 707 c 0
 604 712 611 716 618 716 c 0
 629 716 638 706 638 696 c 0
 638 689 176 -209 170 -212 c 0
 166 -215 165 -215 159 -215 c 0
EndSplineSet
EndChar

StartChar: A
Encoding: 65 65 3
Width: 750
GlyphClass: 2
Flags: MW
HStem: 0 46<42 62 48 50 254 258 449 455 689 710.5> 213 47<310 310 310 521 283 310> 696 20G<555 572 572 572>
LayerCount: 2
Fore
SplineSet
42 0 m 2
 39 3 35 6 35 11 c 0
 35 17 42 40 44 43 c 2
 48 46 l 1
 62 46 l 2
 110 48 142 64 164 96 c 0
 174 106 514 691 523 704 c 0
 530 716 532 716 555 716 c 2
 572 716 l 2
 574 713 578 710 578 706 c 0
 579 703 632 62 636 57 c 0
 640 48 677 46 701 46 c 0
 720 46 726 46 726 36 c 0
 726 34 725 30 723 22 c 0
 719 4 719 0 704 0 c 0
 666 0 626 2 578 2 c 0
 531 2 484 2 455 0 c 2
 443 0 l 1
 436 7 434 7 439 27 c 0
 442 37 443 40 445 43 c 2
 449 46 l 1
 469 46 l 2
 497 47 523 48 533 63 c 1
 521 213 l 1
 283 213 l 1
 249 155 l 2
 230 123 213 94 212 90 c 0
 209 84 208 79 208 75 c 0
 208 57 230 48 254 46 c 0
 268 46 273 44 273 36 c 0
 273 33 272 28 270 22 c 0
 266 4 265 0 251 0 c 0
 217 0 178 2 141 2 c 0
 104 2 70 2 50 0 c 2
 42 0 l 2
516 260 m 0
 516 276 491 561 490 562 c 0
 490 565 481 550 400 412 c 2
 310 260 l 1
 413 259 l 2
 469 259 516 259 516 260 c 0
EndSplineSet
EndChar

StartChar: B
Encoding: 66 66 4
Width: 759
GlyphClass: 2
Flags: MW
HStem: 0 46 336 38 637 46
VStem: 595 107<196.5 256.5 196.5 259> 649 107<532.5 564.5 532.5 566.5>
LayerCount: 2
Fore
SplineSet
288 628 m 0xf0
 288 637 261 636 231 637 c 0
 198 637 197 638 195 644 c 0
 193 647 193 647 196 662 c 0
 200 677 201 680 205 682 c 0
 206 683 264 683 335 683 c 0
 450 683 601 682 608 681 c 0
 655 674 690 658 716 633 c 0
 741 609 756 585 756 544 c 0xe8
 756 521 749 497 737 476 c 0
 707 422 635 375 565 360 c 1
 555 357 l 1
 641 345 702 294 702 219 c 0
 702 174 678 124 636 84 c 0
 587 37 521 7 453 1 c 0
 446 0 366 0 242 0 c 0
 49 0 42 0 39 2 c 0
 36 4 35 6 35 10 c 0
 35 13 35 17 37 24 c 0
 43 45 42 46 62 46 c 2
 68 46 l 2
 90 46 117 48 128 49 c 0
 138 51 143 54 147 61 c 0
 150 65 288 605 288 628 c 0xf0
649 544 m 0
 649 589 624 624 585 634 c 0
 578 636 577 636 493 637 c 0
 447 637 406 636 403 636 c 0
 392 635 388 633 385 629 c 0
 383 626 376 597 351 500 c 2
 320 374 l 1
 401 374 l 2
 477 374 482 374 494 376 c 0
 548 385 601 422 628 470 c 0
 642 495 649 520 649 544 c 0
595 229 m 0xf0
 595 289 559 329 512 336 c 0
 506 337 470 337 429 337 c 0
 374 337 311 337 310 336 c 0
 309 331 240 53 240 52 c 0
 240 47 241 47 333 46 c 0
 394 46 422 46 429 47 c 0
 510 56 595 127 595 229 c 0xf0
EndSplineSet
EndChar

StartChar: C
Encoding: 67 67 5
Width: 715
GlyphClass: 2
Flags: MW
HStem: -22 46<326 331> 659 45<492 497.5 468.5 555.5>
VStem: 50 106<181.5 290> 649 43 651 109
LayerCount: 2
Fore
SplineSet
651 481 m 0xe8
 651 591 601 659 510 659 c 0
 474 659 432 649 395 634 c 0
 325 604 266 550 226 479 c 0
 193 421 165 327 157 251 c 0
 156 243 156 232 156 222 c 0
 156 141 180 92 232 58 c 0
 263 36 302 24 350 24 c 0
 378 24 404 30 433 41 c 0
 511 73 582 153 606 240 c 0
 611 257 611 257 628 257 c 0
 644 257 649 256 649 249 c 0xf0
 649 247 648 243 647 239 c 0
 615 121 510 15 389 -13 c 0
 366 -19 343 -22 319 -22 c 0
 178 -22 81 69 57 187 c 0
 52 208 50 230 50 252 c 0
 50 328 76 411 125 485 c 0
 183 575 273 650 382 686 c 0
 415 696 447 704 490 704 c 0
 505 704 526 704 532 703 c 0
 573 696 606 679 633 653 c 0
 639 647 655 623 657 623 c 0
 659 623 664 627 684 649 c 0
 699 663 717 682 725 690 c 2
 740 705 l 1
 746 705 l 2
 753 705 760 703 760 698 c 0xe8
 760 693 755 673 728 561 c 0
 709 487 693 424 692 421 c 0
 690 414 689 413 669 413 c 2
 653 413 l 1
 647 419 645 417 649 437 c 0xf0
 650 447 651 465 651 481 c 0xe8
EndSplineSet
EndChar

StartChar: D
Encoding: 68 68 6
Width: 828
GlyphClass: 2
Flags: MW
HStem: 0 47 637 46
VStem: 703 100<450.5 497 412 519.5>
LayerCount: 2
Fore
SplineSet
287 628 m 0
 287 637 260 636 230 637 c 0
 197 637 196 638 193 644 c 0
 192 647 192 648 195 661 c 0
 199 675 200 680 204 682 c 0
 206 683 238 683 403 683 c 0
 618 682 603 683 630 676 c 0
 733 652 803 563 803 431 c 0
 803 393 800 369 791 333 c 0
 772 257 731 187 674 128 c 0
 607 59 529 17 444 3 c 2
 430 1 l 1
 236 0 l 1
 125 0 l 2
 28 0 37 1 35 6 c 0
 34 8 33 9 33 11 c 0
 33 13 34 17 36 25 c 0
 41 46 41 46 67 46 c 0
 89 46 116 48 127 49 c 0
 137 51 142 54 146 61 c 0
 149 65 287 605 287 628 c 0
703 469 m 0
 703 570 646 627 555 636 c 0
 549 636 514 637 479 637 c 0
 444 637 409 636 404 636 c 0
 394 635 389 632 386 627 c 0
 384 622 242 56 242 52 c 0
 242 47 244 47 330 47 c 0
 402 47 411 47 421 48 c 0
 484 58 538 85 581 128 c 0
 629 176 657 234 683 339 c 0
 697 394 703 432 703 469 c 0
EndSplineSet
EndChar

StartChar: E
Encoding: 69 69 7
Width: 738
GlyphClass: 2
Flags: MW
HStem: 0 46<334 395> 330 46<312 381> 440 21G<705 717 705 705> 634 46<203 228 197 757 485 536.5>
VStem: 698 66
LayerCount: 2
Fore
SplineSet
698 450 m 0
 698 470 704 512 704 528 c 0
 704 585 688 615 638 627 c 0
 610 633 588 634 485 634 c 0
 410 633 401 633 396 632 c 0
 391 630 388 627 386 622 c 0
 384 618 324 379 324 377 c 2
 324 377 347 376 372 376 c 2
 381 376 l 2
 456 376 496 377 519 429 c 0
 524 439 529 455 534 472 c 0
 538 490 534 493 557 493 c 0
 574 493 572 490 577 483 c 1
 544 351 l 2
 512 222 511 218 508 216 c 0
 505 213 505 213 492 213 c 0
 480 213 479 213 476 216 c 0
 471 219 471 223 475 240 c 0
 481 262 482 273 482 285 c 0
 482 306 477 316 462 322 c 0
 446 329 429 330 364 330 c 2
 312 330 l 1
 305 304 243 55 243 52 c 0
 243 47 244 47 334 46 c 0
 456 46 478 47 518 61 c 0
 584 82 620 127 670 248 c 0
 680 270 680 270 683 272 c 0
 687 274 708 274 712 272 c 0
 715 270 718 264 718 261 c 2
 718 261 613 7 608 2 c 0
 605 0 596 0 322 0 c 0
 12 0 36 0 33 6 c 0
 32 8 31 9 31 11 c 0
 31 13 32 17 34 25 c 0
 39 46 39 46 65 46 c 0
 88 46 114 48 125 49 c 0
 135 51 140 54 144 61 c 0
 147 68 285 616 285 622 c 0
 285 626 284 629 281 629 c 0
 276 631 255 633 228 634 c 2
 197 634 l 1
 190 641 188 641 193 659 c 0
 197 675 196 676 203 680 c 1
 757 680 l 2
 760 677 764 674 764 669 c 0
 764 662 738 450 737 447 c 0
 735 441 731 440 717 440 c 2
 705 440 l 1
 700 444 698 444 698 450 c 0
EndSplineSet
EndChar

StartChar: F
Encoding: 70 70 8
Width: 643
GlyphClass: 2
Flags: MW
HStem: 0 46<336 353 336 336> 317 46<320 364 309 375> 440 21G<690 702 690 690> 634 46<203 228 197 742 480 536>
VStem: 466 36 683 39 683 66
LayerCount: 2
Fore
SplineSet
185 2 m 0xfc
 132 2 90 1 48 1 c 0
 36 1 35 2 33 6 c 0
 32 8 31 9 31 11 c 0
 31 13 32 17 34 25 c 0
 39 46 39 46 65 46 c 0
 88 46 114 48 125 49 c 0
 135 51 140 54 144 61 c 0
 147 68 285 616 285 622 c 0
 285 626 284 629 281 629 c 0
 276 631 255 633 228 634 c 2
 197 634 l 1
 190 641 188 641 193 659 c 0
 197 675 196 676 203 680 c 1
 742 680 l 2
 745 677 749 674 749 669 c 0xfa
 749 662 723 450 722 447 c 0
 720 441 716 440 702 440 c 2
 690 440 l 1
 685 444 683 444 683 450 c 0
 683 454 684 460 685 472 c 0
 688 494 689 513 689 530 c 0
 689 583 675 608 643 621 c 0
 614 633 592 634 480 634 c 0
 410 633 401 633 396 632 c 0
 391 630 388 628 386 623 c 0
 385 622 370 563 352 492 c 2
 320 363 l 1
 375 363 l 2
 421 364 432 364 441 365 c 0
 464 369 478 375 489 386 c 0
 505 400 514 420 524 458 c 0
 529 477 525 480 548 480 c 2
 560 480 l 2
 563 478 567 474 567 470 c 0
 567 466 504 212 502 207 c 0
 500 201 496 200 482 200 c 2
 470 200 l 1
 462 206 461 207 466 226 c 0
 471 246 473 262 473 274 c 0
 473 297 466 306 448 311 c 0
 433 316 425 317 364 317 c 2
 309 317 l 1
 277 190 l 2
 259 120 245 62 245 60 c 0
 245 56 247 53 251 52 c 0
 259 48 293 46 334 46 c 2
 359 46 l 1
 366 39 368 40 363 19 c 0
 358 3 359 6 353 0 c 1
 336 0 l 2
 295 2 239 2 185 2 c 0xfc
EndSplineSet
EndChar

StartChar: G
Encoding: 71 71 9
Width: 786
GlyphClass: 2
Flags: MW
HStem: -22 46<347 353 353 361.5> -1 21G<580 585.5> 227 46<437 454 437 468 431 454> 659 45<492 497.5 468.5 555.5>
VStem: 50 106<199 228.5 199 290> 649 43 651 109
LayerCount: 2
Fore
SplineSet
322 -22 m 0xba
 168 -22 50 82 50 252 c 0
 50 328 76 411 125 485 c 0
 183 575 273 650 382 686 c 0
 415 696 447 704 490 704 c 0
 505 704 526 704 532 703 c 0
 573 696 606 679 633 653 c 0
 639 647 655 623 657 623 c 0
 659 623 664 627 684 649 c 0
 699 663 717 682 725 690 c 2
 740 705 l 1
 746 705 l 2
 753 705 760 703 760 698 c 0xba
 760 693 755 673 728 561 c 0
 709 487 693 424 692 421 c 0
 690 414 689 413 669 413 c 2
 653 413 l 1
 647 419 645 417 649 437 c 0xbc
 650 447 651 465 651 481 c 0
 651 591 601 659 510 659 c 0
 474 659 432 649 395 634 c 0
 259 576 181 437 158 260 c 0
 157 251 156 236 156 221 c 0
 156 177 163 149 176 122 c 0
 206 64 263 29 347 24 c 1
 353 24 l 2xba
 424 24 491 57 514 106 c 0
 517 115 541 207 541 214 c 0
 541 224 530 226 468 227 c 2
 431 227 l 1
 424 234 422 232 427 254 c 0
 431 268 431 267 437 273 c 1
 454 273 l 2
 494 271 546 271 594 271 c 0
 642 271 674 272 707 272 c 0
 718 272 721 270 721 264 c 0
 721 261 720 255 719 249 c 0
 714 231 718 227 694 227 c 0
 678 227 660 225 653 224 c 0
 648 222 644 219 642 213 c 0
 641 212 629 164 614 108 c 0
 594 28 590 -1 581 -1 c 0x7a
 579 -1 577 0 575 2 c 0
 563 9 537 39 530 52 c 0
 530 53 526 50 522 47 c 0
 478 6 401 -22 322 -22 c 0xba
EndSplineSet
EndChar

StartChar: H
Encoding: 72 72 10
Width: 831
GlyphClass: 2
Flags: MW
HStem: 0 46<312 327 312 312 701 716 701 701> 332 46<312 614> 637 45<455 489 600 617>
LayerCount: 2
Fore
SplineSet
871 682 m 0
 886 682 888 680 888 672 c 0
 888 670 888 666 886 658 c 0
 882 643 880 640 876 638 c 0
 875 638 860 637 844 637 c 0
 797 636 785 637 776 623 c 0
 771 615 634 61 634 58 c 0
 634 54 635 51 638 51 c 0
 643 49 664 47 692 46 c 2
 723 46 l 1
 729 38 731 40 726 19 c 0
 722 5 722 6 716 0 c 1
 701 0 l 2
 664 2 615 2 567 2 c 0
 519 2 478 1 437 1 c 0
 424 1 420 3 420 9 c 0
 420 12 422 17 423 24 c 0
 429 45 428 46 448 46 c 2
 454 46 l 2
 477 46 503 48 514 49 c 0
 524 51 529 54 533 61 c 0
 537 69 602 328 602 331 c 0
 602 332 554 332 457 332 c 2
 312 332 l 1
 279 197 l 2
 260 122 245 60 245 58 c 0
 245 54 246 52 248 51 c 0
 252 49 273 47 303 46 c 2
 334 46 l 1
 340 38 342 40 337 19 c 0
 333 5 333 6 327 0 c 1
 312 0 l 2
 275 2 226 2 178 2 c 0
 130 2 89 1 48 1 c 0
 35 1 31 2 31 10 c 0
 31 12 32 16 34 24 c 0
 40 45 39 46 59 46 c 2
 65 46 l 2
 87 46 114 48 125 49 c 0
 135 51 140 54 144 61 c 0
 147 65 285 605 285 628 c 0
 285 637 258 636 228 637 c 0
 195 637 194 638 192 644 c 0
 190 647 190 647 193 662 c 0
 197 677 198 679 202 682 c 0
 204 683 208 683 219 683 c 0
 260 681 308 681 355 681 c 0
 402 681 443 682 483 682 c 0
 495 682 496 681 498 676 c 0
 500 673 500 673 497 658 c 0
 493 643 491 640 487 638 c 0
 486 638 471 637 455 637 c 0
 408 636 396 637 387 623 c 0
 385 620 382 610 355 500 c 0
 338 435 325 381 324 380 c 0
 324 378 331 378 469 378 c 2
 614 378 l 1
 615 381 l 2
 615 383 629 438 646 504 c 0
 667 590 674 618 674 627 c 0
 674 638 647 636 617 637 c 0
 583 637 581 637 581 647 c 0
 581 655 585 674 587 677 c 0
 589 681 590 682 604 682 c 0
 644 682 680 680 740 680 c 0
 799 680 834 682 871 682 c 0
EndSplineSet
EndChar

StartChar: I
Encoding: 73 73 11
Width: 440
GlyphClass: 2
Flags: MW
HStem: 0 46<316 332 316 316> 637 46<206 213 206 213 193 213>
LayerCount: 2
Fore
SplineSet
43 1 m 0
 30 1 26 2 26 10 c 0
 26 12 27 16 29 24 c 0
 35 45 33 46 54 46 c 2
 60 46 l 2
 92 46 121 46 136 53 c 0
 146 59 140 38 216 344 c 0
 270 560 286 624 286 626 c 0
 285 628 284 630 284 631 c 0
 279 634 249 637 213 637 c 2
 193 637 l 1
 185 643 184 645 189 662 c 0
 192 676 193 678 196 681 c 0
 199 683 199 683 213 683 c 0
 249 682 307 681 359 681 c 2
 414 681 l 2
 446 681 478 681 487 683 c 2
 497 683 l 2
 500 680 504 677 504 672 c 0
 504 669 503 665 501 658 c 0
 498 644 497 642 494 639 c 0
 491 637 491 637 471 637 c 0
 447 637 418 635 407 634 c 0
 397 632 393 630 388 624 c 0
 381 615 245 59 245 59 c 2
 245 54 247 51 252 50 c 0
 260 48 276 47 307 46 c 2
 339 46 l 1
 345 38 347 40 342 19 c 0
 338 5 338 6 332 0 c 1
 316 0 l 2
 279 2 229 2 179 2 c 0
 130 2 85 1 43 1 c 0
EndSplineSet
EndChar

StartChar: J
Encoding: 74 74 12
Width: 555
GlyphClass: 2
Flags: MW
HStem: -22 37<182.5 222.5 182.5 249.5> 637 46<335 352 335 354 329 352>
VStem: 57 125<55.5 130>
LayerCount: 2
Fore
SplineSet
447 625 m 0
 447 637 398 637 354 637 c 2
 329 637 l 1
 321 643 320 644 325 664 c 0
 329 678 329 677 335 683 c 1
 352 683 l 2
 393 681 448 681 498 681 c 0
 548 681 584 682 619 682 c 0
 629 682 630 681 631 677 c 0
 632 675 633 674 633 672 c 0
 633 670 632 666 630 658 c 0
 625 637 624 637 604 637 c 2
 595 637 l 2
 572 637 551 636 545 623 c 0
 544 620 516 510 483 376 c 0
 449 243 421 131 419 127 c 0
 393 50 304 -22 195 -22 c 0
 114 -22 57 23 57 88 c 0
 57 132 84 174 132 174 c 0
 159 174 179 158 182 130 c 0
 182 90 156 63 123 56 c 0
 113 53 113 54 122 44 c 0
 138 26 168 15 197 15 c 0
 248 15 303 67 324 130 c 0
 329 144 447 615 447 625 c 0
EndSplineSet
EndChar

StartChar: K
Encoding: 75 75 13
Width: 849
GlyphClass: 2
Flags: MW
HStem: 0 46<303 323.5 720 731 720 720> 637 45<463 466.5>
LayerCount: 2
Fore
SplineSet
285 628 m 0
 285 637 258 636 228 637 c 0
 195 637 194 638 191 644 c 0
 190 647 190 648 193 661 c 0
 197 675 198 679 202 682 c 0
 204 683 207 683 219 683 c 0
 260 681 308 681 355 681 c 0
 402 681 443 682 483 682 c 0
 496 682 500 680 500 674 c 0
 500 671 499 666 497 660 c 0
 493 644 492 640 488 639 c 0
 486 638 477 637 456 637 c 0
 408 636 396 637 387 623 c 0
 382 616 306 305 306 305 c 2
 307 305 672 591 678 597 c 0
 688 607 692 614 692 620 c 0
 692 631 681 636 667 637 c 0
 658 637 651 641 651 648 c 0
 651 651 657 674 659 677 c 0
 661 681 663 682 676 682 c 0
 711 682 746 680 791 680 c 0
 824 680 855 681 865 682 c 0
 883 683 889 683 889 672 c 0
 889 667 883 644 881 642 c 0
 879 638 876 637 862 637 c 0
 814 634 767 617 726 586 c 0
 720 582 715 579 714 578 c 0
 711 577 510 419 509 418 c 0
 509 417 542 339 581 244 c 0
 659 60 656 64 666 57 c 0
 676 50 689 47 717 46 c 2
 738 46 l 1
 744 38 746 40 741 19 c 0
 737 5 737 6 731 0 c 1
 720 0 l 2
 693 2 661 3 625 3 c 0
 593 3 506 3 488 0 c 2
 478 0 l 1
 471 7 469 7 474 27 c 0
 477 38 478 40 481 43 c 0
 484 46 484 46 494 46 c 0
 526 46 544 55 544 71 c 0
 544 77 530 109 485 216 c 2
 427 354 l 2
 426 354 396 330 359 301 c 2
 291 248 l 1
 268 155 l 2
 255 103 245 60 245 58 c 0
 245 54 246 52 248 51 c 0
 252 49 273 47 303 46 c 2
 334 46 l 2
 336 43 340 40 340 35 c 0
 340 29 335 9 333 5 c 0
 330 2 330 0 317 0 c 0
 277 0 241 2 180 2 c 0
 121 2 86 1 49 1 c 0
 36 1 35 2 33 6 c 0
 32 8 31 9 31 11 c 0
 31 13 32 17 34 25 c 0
 39 46 39 46 65 46 c 0
 87 46 114 48 125 49 c 0
 135 51 140 54 144 61 c 0
 147 65 285 605 285 628 c 0
EndSplineSet
EndChar

StartChar: L
Encoding: 76 76 14
Width: 681
GlyphClass: 2
Flags: MW
HStem: 0 46<311 355.5> 637 46<211.5 217 206.5 228 506 513>
VStem: 611 36
LayerCount: 2
Fore
SplineSet
285 628 m 0
 285 637 258 636 228 637 c 0
 195 637 194 638 192 644 c 0
 190 647 190 647 193 662 c 0
 199 683 196 683 217 683 c 0
 253 681 298 680 344 680 c 0
 371 680 397 681 422 681 c 0
 462 682 500 682 506 683 c 2
 518 683 l 1
 525 676 527 676 522 656 c 0
 518 643 518 642 513 637 c 1
 475 637 l 2
 421 636 403 634 394 628 c 0
 384 622 391 645 313 336 c 0
 275 181 243 53 243 52 c 0
 243 47 246 47 311 46 c 0
 400 46 433 46 487 78 c 0
 545 111 572 168 600 242 c 0
 606 259 610 268 611 270 c 0
 614 272 614 273 628 273 c 2
 641 273 l 2
 643 270 647 267 647 262 c 0
 647 257 566 36 557 9 c 0
 555 5 554 3 552 2 c 0
 549 0 543 0 294 0 c 0
 47 0 39 0 36 2 c 0
 33 4 32 6 32 10 c 0
 32 13 32 17 34 24 c 0
 40 45 39 46 59 46 c 2
 65 46 l 2
 87 46 114 48 125 49 c 0
 135 51 140 54 144 61 c 0
 147 65 285 605 285 628 c 0
EndSplineSet
EndChar

StartChar: M
Encoding: 77 77 15
Width: 970
GlyphClass: 2
Flags: MW
HStem: 0 46<272 275 855 875> 637 46<214.5 360>
LayerCount: 2
Fore
SplineSet
267 0 m 0
 235 0 206 2 157 2 c 0
 121 2 85 2 68 1 c 0
 47 0 44 0 41 2 c 0
 38 3 35 8 35 11 c 0
 35 14 41 37 43 40 c 0
 45 45 48 46 65 46 c 0
 106 48 141 58 154 86 c 0
 158 93 289 611 289 629 c 0
 289 634 287 632 284 633 c 0
 276 635 262 636 232 637 c 0
 197 637 195 637 195 648 c 0
 195 658 201 678 205 681 c 0
 208 683 212 683 307 683 c 0
 413 683 410 683 414 678 c 0
 415 675 423 614 451 396 c 2
 487 117 l 2
 487 116 566 241 662 394 c 0
 758 547 838 674 839 675 c 0
 840 677 844 679 846 681 c 2
 852 683 l 1
 948 683 l 2
 1041 683 1044 683 1047 681 c 0
 1050 679 1051 677 1051 673 c 0
 1051 667 1045 647 1045 643 c 0
 1042 638 1041 637 1008 637 c 0
 960 636 948 637 939 623 c 0
 934 615 797 62 797 59 c 0
 797 54 798 52 800 51 c 0
 804 49 825 47 855 46 c 2
 886 46 l 2
 888 43 892 40 892 35 c 0
 892 29 887 9 885 5 c 0
 882 2 881 0 869 0 c 0
 830 0 795 2 736 2 c 0
 679 2 645 1 609 1 c 0
 597 1 595 2 593 6 c 0
 590 10 591 11 594 25 c 0
 599 46 599 46 625 46 c 0
 648 46 674 48 685 49 c 0
 695 51 700 54 704 61 c 0
 709 70 848 630 848 631 c 2
 654 322 l 2
 547 152 458 11 457 9 c 0
 451 3 446 0 433 0 c 0
 421 0 417 2 415 7 c 0
 414 9 398 129 374 317 c 2
 335 624 l 1
 267 354 l 2
 204 104 200 84 200 79 c 0
 205 51 238 46 272 46 c 2
 282 46 l 1
 290 40 291 38 286 19 c 0
 282 4 283 0 267 0 c 0
EndSplineSet
EndChar

StartChar: N
Encoding: 78 78 16
Width: 803
GlyphClass: 2
Flags: MW
HStem: 0 46<268 272> 637 46<214.5 351.5 650 659>
LayerCount: 2
Fore
SplineSet
46 1 m 0
 35 1 31 2 31 10 c 0
 31 14 38 39 39 40 c 0
 41 45 44 46 62 46 c 0
 109 48 137 61 150 85 c 0
 153 90 165 137 221 362 c 2
 289 634 l 2
 287 635 263 636 234 637 c 0
 195 637 194 637 192 644 c 0
 190 647 190 647 193 662 c 0
 197 677 198 680 202 682 c 0
 204 683 225 683 299 683 c 0
 404 683 398 683 401 677 c 0
 401 676 613 180 616 168 c 1
 670 381 l 2
 714 556 723 594 723 606 c 0
 723 631 686 635 659 637 c 0
 641 637 638 638 636 644 c 0
 634 647 634 647 637 660 c 0
 642 679 640 683 653 683 c 0
 686 683 717 680 767 680 c 0
 814 680 843 682 873 682 c 0
 884 682 888 680 888 672 c 0
 888 667 882 644 880 642 c 0
 878 638 875 637 858 637 c 0
 816 635 783 625 769 597 c 0
 767 591 620 7 620 7 c 2
 618 1 614 0 599 0 c 0
 586 0 585 0 582 2 c 0
 580 4 555 62 453 305 c 2
 326 604 l 1
 261 344 l 2
 199 100 196 85 196 79 c 0
 201 51 233 46 268 46 c 2
 278 46 l 1
 286 40 287 39 282 19 c 0
 278 5 278 6 272 0 c 1
 259 0 l 2
 228 2 190 2 151 2 c 0
 113 2 79 1 46 1 c 0
EndSplineSet
EndChar

StartChar: O
Encoding: 79 79 17
Width: 763
GlyphClass: 2
Flags: MW
HStem: -22 41<305.5 336.5 305.5 345.5> 665 39<470 476 476 481.5>
VStem: 50 107<198.5 253> 637 103<453 509 392 527>
LayerCount: 2
Fore
SplineSet
459 704 m 1
 476 704 l 2
 493 704 514 704 524 703 c 0
 653 685 740 583 740 435 c 0
 740 349 709 257 653 179 c 0
 616 126 567 79 515 46 c 0
 458 9 387 -22 304 -22 c 0
 235 -22 172 2 126 46 c 0
 77 94 50 153 50 244 c 0
 50 262 50 279 51 289 c 0
 63 379 104 467 167 541 c 0
 180 556 212 588 227 601 c 0
 299 661 379 697 459 704 c 1
637 476 m 0
 637 578 587 646 507 662 c 0
 498 664 487 665 476 665 c 0
 464 665 451 664 439 661 c 0
 401 654 358 634 322 605 c 0
 308 594 280 565 267 550 c 0
 209 476 157 341 157 216 c 0
 157 121 196 50 265 27 c 0
 281 22 297 19 314 19 c 0
 359 19 403 37 434 57 c 0
 512 108 572 196 608 313 c 0
 627 375 637 430 637 476 c 0
EndSplineSet
EndChar

StartChar: P
Encoding: 80 80 18
Width: 642
GlyphClass: 2
Flags: MW
HStem: 0 46<305 325.5> 301 41<356 395 356 402> 637 46
VStem: 645 106<524 581.5>
LayerCount: 2
Fore
SplineSet
287 628 m 0
 287 637 260 636 230 637 c 0
 195 637 193 637 193 648 c 0
 193 658 199 678 203 681 c 0
 206 683 210 683 397 683 c 0
 585 682 587 682 600 680 c 0
 675 667 734 626 750 556 c 0
 751 550 751 540 751 530 c 0
 751 518 751 505 749 497 c 0
 741 458 720 423 685 389 c 0
 639 344 579 315 507 303 c 0
 498 302 484 302 402 301 c 2
 307 301 l 1
 277 182 l 2
 260 116 247 61 247 59 c 0
 247 54 248 52 250 51 c 0
 254 49 275 47 305 46 c 2
 336 46 l 2
 338 43 342 40 342 35 c 0
 342 29 337 9 335 5 c 0
 332 2 332 0 319 0 c 0
 279 0 243 2 182 2 c 0
 123 2 88 1 51 1 c 0
 38 1 37 2 35 6 c 0
 34 8 33 9 33 11 c 0
 33 13 34 17 36 25 c 0
 41 46 41 46 67 46 c 0
 89 46 116 48 127 49 c 0
 137 51 142 54 146 61 c 0
 149 65 287 605 287 628 c 0
645 554 m 0
 645 609 608 626 560 635 c 0
 551 636 540 636 480 637 c 0
 442 637 408 636 404 636 c 0
 394 635 389 632 386 627 c 0
 381 612 316 346 314 344 c 0
 314 342 317 342 395 342 c 0
 464 343 477 343 487 344 c 0
 532 351 566 367 590 392 c 0
 611 413 622 438 635 489 c 0
 643 522 645 534 645 554 c 0
EndSplineSet
EndChar

StartChar: Q
Encoding: 81 81 19
Width: 791
GlyphClass: 2
Flags: MW
HStem: -194 112<448.5 542.5> -22 40<300.5 316.5> 118 37<335 338.5> 665 39<461.5 476 476 484.5 459 496.5>
VStem: 50 103<198.5 223.5 179 253> 236 38<41 46 45 67.5 41 77> 402 42<-11 8 -7 8> 636 104<460 508.5>
LayerCount: 2
Fore
SplineSet
399 -80 m 0
 399 -59 402 -27 402 -11 c 2
 402 -7 l 1
 387 -11 l 2
 358 -18 330 -22 303 -22 c 0
 234 -22 173 1 126 46 c 0
 77 94 50 153 50 244 c 0
 50 262 50 279 51 289 c 0
 63 379 104 467 167 541 c 0
 180 556 212 588 227 601 c 0
 299 661 379 697 459 704 c 1
 476 704 l 2
 493 704 514 704 524 703 c 0
 653 685 740 583 740 435 c 0
 740 248 603 81 461 16 c 2
 444 8 l 1
 444 3 l 2
 445 1 446 -6 448 -13 c 0
 459 -63 473 -82 516 -82 c 0
 569 -82 613 -44 625 -3 c 0
 629 7 632 11 638 11 c 0
 643 11 648 7 649 2 c 0
 649 -2 648 -7 642 -27 c 0
 620 -92 583 -157 531 -183 c 0
 515 -190 498 -194 481 -194 c 0
 416 -194 399 -147 399 -80 c 0
347 155 m 0
 395 155 428 119 435 55 c 1
 448 64 l 2
 553 136 615 270 635 425 c 0
 636 435 636 452 636 468 c 0
 636 549 613 602 568 635 c 0
 543 654 516 665 477 665 c 0
 446 665 413 657 379 640 c 0
 256 580 174 425 154 257 c 0
 153 246 153 231 153 216 c 0
 153 142 170 95 207 59 c 0
 216 51 234 38 236 38 c 0
 238 38 236 44 236 46 c 0
 236 108 296 155 347 155 c 0
314 18 m 0
 343 18 379 27 404 39 c 1
 403 49 l 2
 400 88 389 107 366 115 c 0
 360 116 355 117 347 117 c 0
 342 117 340 118 337 118 c 0
 333 118 330 117 324 115 c 0
 299 107 274 83 274 52 c 0
 274 30 287 18 314 18 c 0
EndSplineSet
EndChar

StartChar: R
Encoding: 82 82 20
Width: 759
GlyphClass: 2
Flags: MW
HStem: -21 37<622.5 641> 0 46<311 326 311 311> 323 37<363.5 378> 637 46
VStem: 487 115<82 90.5 59 99.5> 517 95<228.5 246 220.5 258> 630 109<534.5 545 524 565> 712 43
LayerCount: 2
Fore
SplineSet
287 628 m 0x74
 287 637 260 636 230 637 c 0
 197 637 196 638 194 644 c 0
 192 647 192 647 195 662 c 0
 199 677 200 680 204 682 c 0
 206 683 240 683 378 683 c 0
 546 682 550 682 564 680 c 0
 625 671 670 651 702 618 c 0
 726 592 739 561 739 529 c 0
 739 519 737 509 735 499 c 0
 720 441 667 390 588 355 c 0
 575 350 542 338 538 338 c 0
 537 338 540 336 545 333 c 0
 587 309 612 269 612 223 c 0x76
 612 218 610 190 607 159 c 0
 602 111 602 101 602 80 c 0
 602 38 605 16 640 16 c 0
 647 16 654 16 658 18 c 0
 681 27 702 53 712 85 c 0
 718 104 719 105 735 105 c 0
 750 105 755 102 755 93 c 0
 755 84 742 54 731 36 c 0
 712 8 687 -12 661 -19 c 0
 653 -21 650 -21 632 -21 c 0
 565 -21 517 1 497 42 c 0
 490 55 488 64 487 82 c 0xb9
 487 117 490 119 502 166 c 0
 512 204 517 218 517 239 c 0
 517 277 499 299 474 313 c 0
 454 323 456 322 378 323 c 2
 309 323 l 1
 277 193 l 2
 259 121 244 60 244 59 c 0
 244 54 245 52 247 51 c 0
 251 49 272 47 302 46 c 2
 333 46 l 1
 339 38 341 40 336 19 c 0
 332 5 332 6 326 0 c 1
 311 0 l 2
 275 2 228 2 180 2 c 0
 133 2 91 1 50 1 c 0
 37 1 33 2 33 10 c 0
 33 12 34 16 36 24 c 0
 42 45 41 46 61 46 c 2
 67 46 l 2
 89 46 116 48 127 49 c 0
 137 51 142 54 146 61 c 0
 149 65 287 605 287 628 c 0x74
614 602 m 0
 583 634 536 637 462 637 c 0
 435 637 409 636 404 636 c 0
 394 635 389 632 386 627 c 0
 384 623 319 364 319 361 c 0
 319 360 339 360 388 360 c 0
 462 361 466 361 492 367 c 0
 534 374 570 396 592 426 c 0
 614 457 630 515 630 554 c 0
 630 576 625 590 614 602 c 0
EndSplineSet
EndChar

StartChar: S
Encoding: 83 83 21
Width: 613
GlyphClass: 2
Flags: MW
HStem: -22 46<263 305> 662 42<407 418 418 454.5 407 463>
VStem: 52 90 110 37 176 87<489 496> 466 88<191.5 268.5>
LayerCount: 2
Fore
SplineSet
553 520 m 0xec
 553 609 507 662 419 662 c 0
 350 662 263 597 263 510 c 0
 263 468 286 437 319 427 c 0
 324 424 450 392 456 390 c 0
 466 387 485 376 494 370 c 0
 533 342 554 295 554 242 c 0
 554 224 551 205 546 186 c 0
 542 166 536 150 526 131 c 0
 488 55 422 -1 332 -20 c 0
 326 -21 312 -22 298 -22 c 0
 228 -22 179 -2 144 33 c 2
 134 44 l 1
 106 13 l 2
 91 -4 77 -19 75 -20 c 0
 72 -22 70 -22 65 -22 c 0
 58 -22 52 -19 52 -14 c 0xec
 52 -11 108 213 110 221 c 0
 112 226 115 227 130 227 c 2
 143 227 l 1
 149 221 151 223 147 204 c 0xdc
 143 184 142 172 142 153 c 0
 147 64 212 24 308 24 c 0
 317 24 325 25 332 26 c 0
 394 40 450 98 464 166 c 0
 466 174 466 186 466 197 c 0
 466 243 445 270 414 284 c 0
 408 285 278 319 273 322 c 0
 216 339 176 391 176 462 c 0
 176 530 221 610 273 648 c 0
 305 676 348 696 396 703 c 0
 400 704 406 704 407 704 c 2
 418 704 l 2
 491 704 536 683 564 640 c 0
 566 640 611 692 623 704 c 0
 625 704 628 705 632 705 c 0
 639 705 645 705 645 698 c 0
 645 690 590 464 585 459 c 0
 582 456 582 456 569 456 c 0
 554 456 549 457 549 465 c 0
 549 467 549 471 550 475 c 0
 550 485 553 507 553 520 c 0xec
EndSplineSet
EndChar

StartChar: T
Encoding: 84 84 22
Width: 584
GlyphClass: 2
Flags: MW
HStem: 0 46<55 64 49 83 387 409> 630 47<250 279 279 310>
VStem: 21 46 629 39<443 446> 641 63
LayerCount: 2
Fore
SplineSet
415 0 m 0xe8
 359 0 295 2 228 2 c 0
 162 2 99 2 64 0 c 2
 49 0 l 1
 42 7 40 7 45 27 c 0
 49 41 49 40 55 46 c 1
 83 46 l 2
 112 46 150 47 164 49 c 0
 178 50 184 52 189 55 c 0
 200 62 192 36 269 344 c 0
 308 497 339 623 339 625 c 0
 339 629 338 630 310 630 c 2
 279 630 l 2
 221 630 212 630 191 624 c 0
 164 618 140 605 126 589 c 0
 107 568 88 528 67 467 c 0
 58 438 58 437 43 437 c 2
 40 437 l 2
 27 437 27 437 24 440 c 0
 22 442 21 442 21 445 c 0
 21 452 28 472 51 541 c 0
 67 591 84 640 88 651 c 0
 94 671 95 671 101 677 c 1
 569 677 l 2
 717 677 701 676 703 671 c 0
 703 670 704 669 704 667 c 0xe8
 704 659 669 445 668 444 c 0
 668 442 666 440 664 439 c 0
 662 437 660 437 649 437 c 0
 632 437 635 439 629 445 c 0xf0
 629 447 630 459 632 472 c 0
 638 508 641 532 641 551 c 0
 641 628 598 629 515 631 c 0
 453 631 445 630 439 622 c 0
 438 621 298 66 298 60 c 0
 298 55 304 52 311 51 c 0
 323 48 344 47 386 46 c 0
 432 46 432 46 435 39 c 0
 436 36 436 35 433 22 c 0
 429 6 428 4 424 1 c 0
 422 1 421 0 415 0 c 0xe8
EndSplineSet
EndChar

StartChar: U
Encoding: 85 85 23
Width: 683
GlyphClass: 2
Flags: MW
HStem: -22 46<232 327 232 332> 637 46<92.5 98 92.5 107 526 535>
VStem: 60 92<103 174.5>
LayerCount: 2
Fore
SplineSet
152 140 m 0
 152 66 195 24 269 24 c 0
 385 24 470 113 501 205 c 1
 552 406 l 2
 590 561 599 595 599 606 c 0
 599 631 562 635 535 637 c 0
 517 637 514 638 512 644 c 0
 510 647 510 647 513 660 c 0
 518 679 516 683 529 683 c 0
 563 683 595 680 645 680 c 0
 693 680 722 682 752 682 c 0
 763 682 767 680 767 672 c 0
 767 667 761 644 759 642 c 0
 757 638 754 637 737 637 c 0
 695 635 662 625 648 597 c 0
 646 592 634 545 598 404 c 0
 573 302 550 212 548 205 c 0
 512 97 401 -22 263 -22 c 0
 155 -22 75 46 61 144 c 0
 60 150 60 158 60 167 c 0
 60 182 61 199 62 208 c 0
 67 233 164 609 164 628 c 0
 164 637 136 636 107 637 c 0
 74 637 73 638 71 644 c 0
 69 647 69 647 72 662 c 0
 76 677 77 679 81 682 c 0
 83 683 87 683 98 683 c 0
 139 681 187 681 234 681 c 0
 281 681 322 682 362 682 c 0
 374 682 375 681 377 676 c 0
 379 673 379 673 376 658 c 0
 372 643 370 640 366 638 c 0
 365 638 350 637 334 637 c 0
 287 636 275 637 266 623 c 0
 264 620 159 213 154 169 c 0
 153 162 152 151 152 140 c 0
EndSplineSet
EndChar

StartChar: V
Encoding: 86 86 24
Width: 583
GlyphClass: 2
Flags: MW
HStem: 637 46<59 76 65 76 65 76 65 87 320 325 551 555>
LayerCount: 2
Fore
SplineSet
59 637 m 2
 56 640 52 643 52 648 c 0
 52 659 61 679 65 683 c 1
 76 683 l 2
 104 681 142 680 181 680 c 0
 216 680 299 680 320 683 c 2
 330 683 l 1
 337 676 339 676 334 656 c 0
 330 643 330 642 325 637 c 1
 304 637 l 2
 293 636 279 635 274 635 c 0
 256 632 244 626 242 620 c 0
 242 618 300 119 301 118 c 0
 302 117 591 585 595 594 c 0
 598 600 600 605 600 609 c 0
 600 627 575 635 555 637 c 0
 541 637 536 639 536 647 c 0
 536 650 537 655 539 661 c 0
 543 679 544 683 558 683 c 0
 592 683 632 681 668 681 c 0
 704 681 737 681 755 683 c 2
 762 683 l 2
 765 680 769 677 769 672 c 0
 769 666 762 643 760 640 c 0
 757 637 756 637 743 637 c 0
 705 635 679 625 657 605 c 0
 653 601 648 595 645 592 c 0
 643 588 640 584 638 582 c 2
 638 582 270 -15 264 -18 c 2
 259 -21 l 1
 241 -22 l 2
 225 -22 223 -22 220 -20 c 0
 218 -19 216 -17 216 -15 c 0
 215 -13 200 105 177 305 c 0
 146 567 140 622 138 626 c 0
 133 636 110 637 87 637 c 2
 76 637 l 1
 59 637 l 2
EndSplineSet
EndChar

StartChar: W
Encoding: 87 87 25
Width: 944
GlyphClass: 2
Flags: MW
HStem: 637 46<58 76 64 76 64 82 313 318>
LayerCount: 2
Fore
SplineSet
58 637 m 2
 55 640 51 642 51 648 c 0
 51 660 60 679 64 683 c 1
 76 683 l 2
 104 681 139 680 176 680 c 0
 197 680 219 681 241 681 c 0
 275 682 308 682 313 683 c 2
 323 683 l 1
 330 676 332 676 327 656 c 0
 323 643 323 642 318 637 c 1
 297 637 l 2
 274 636 261 634 249 631 c 0
 241 628 233 623 232 620 c 0
 232 613 264 147 266 136 c 1
 501 550 l 1
 499 587 l 2
 496 627 495 629 489 632 c 0
 484 635 472 636 447 637 c 0
 421 637 419 638 417 644 c 0
 415 647 415 647 418 660 c 0
 422 676 423 680 427 682 c 0
 430 683 433 683 458 682 c 0
 475 681 513 680 553 680 c 0
 606 680 641 682 677 682 c 0
 690 682 694 681 694 675 c 0
 694 670 689 645 687 643 c 0
 685 638 682 637 661 637 c 0
 627 636 606 631 599 622 c 0
 597 620 596 618 597 615 c 0
 597 591 629 162 629 138 c 0
 629 136 660 188 759 362 c 0
 830 487 889 592 890 595 c 0
 891 598 892 601 892 604 c 0
 892 627 856 637 831 637 c 0
 821 637 817 640 817 647 c 0
 817 650 818 655 819 660 c 0
 823 676 820 682 839 682 c 0
 874 682 915 681 949 681 c 0
 984 681 1015 681 1034 683 c 0
 1042 683 1048 679 1048 672 c 0
 1048 664 1041 642 1038 640 c 0
 1035 637 1034 637 1028 637 c 0
 982 637 952 619 931 590 c 0
 928 585 925 579 923 578 c 0
 922 577 587 -14 585 -15 c 0
 580 -21 576 -22 561 -22 c 0
 548 -22 545 -21 542 -17 c 0
 538 -12 506 479 506 480 c 0
 506 484 495 466 366 239 c 0
 289 104 225 -9 223 -12 c 0
 218 -20 213 -22 197 -22 c 0
 182 -22 178 -21 176 -15 c 0
 176 -13 132 620 131 622 c 0
 129 634 123 636 82 637 c 2
 58 637 l 2
EndSplineSet
EndChar

StartChar: X
Encoding: 88 88 26
Width: 828
GlyphClass: 2
Flags: MW
HStem: 1 45<242 277.5 699 713.5> 637 46<212 226 212 234 206 226 606 609 837 840>
LayerCount: 2
Fore
SplineSet
42 0 m 0
 31 0 26 3 26 11 c 0
 26 14 27 19 29 27 c 0
 34 46 34 45 55 46 c 0
 115 48 158 66 190 98 c 0
 202 110 412 341 411 342 c 2
 411 342 302 620 297 625 c 0
 290 633 276 636 234 637 c 2
 206 637 l 1
 199 644 197 644 202 664 c 0
 207 680 206 677 212 683 c 1
 226 683 l 2
 260 681 303 681 347 681 c 0
 390 681 432 682 473 682 c 0
 486 682 489 681 489 673 c 0
 489 665 485 645 482 642 c 0
 480 638 477 637 465 637 c 0
 445 635 422 629 413 621 c 2
 411 620 l 1
 488 426 l 1
 541 485 l 2
 571 517 604 554 615 567 c 0
 644 598 647 603 646 614 c 0
 644 623 635 631 622 635 c 0
 620 635 613 636 609 637 c 0
 600 637 599 638 596 641 c 0
 592 645 592 647 596 664 c 0
 600 678 600 677 606 683 c 1
 618 683 l 2
 633 681 713 680 738 680 c 0
 760 680 825 680 837 683 c 2
 845 683 l 2
 848 680 852 677 852 672 c 0
 852 661 844 641 840 637 c 1
 824 637 l 2
 770 635 731 621 698 594 c 0
 694 590 689 585 687 584 c 0
 686 582 684 580 682 579 c 0
 680 577 640 533 592 480 c 2
 505 384 l 2
 505 383 629 65 638 56 c 0
 646 49 658 47 699 46 c 0
 728 46 734 45 734 38 c 0
 734 32 728 9 727 6 c 0
 725 2 723 1 711 1 c 0
 676 1 645 2 589 2 c 0
 534 2 498 1 461 1 c 0
 448 1 447 2 445 6 c 0
 442 10 443 11 446 25 c 0
 451 45 452 45 468 46 c 0
 481 47 494 50 506 54 c 0
 515 58 523 63 523 64 c 1
 522 64 501 117 476 181 c 2
 429 299 l 2
 428 299 241 93 240 90 c 0
 237 87 232 78 232 72 c 0
 232 61 243 51 261 47 c 0
 264 47 270 46 273 46 c 0
 282 46 285 43 285 36 c 0
 285 32 284 26 282 19 c 0
 278 3 278 1 261 1 c 0
 223 1 182 2 142 2 c 0
 101 2 64 2 42 0 c 0
EndSplineSet
EndChar

StartChar: Y
Encoding: 89 89 27
Width: 581
GlyphClass: 2
Flags: MW
HStem: 1 45<112.5 120.5 346 373> 637 46<51.5 56 51.5 66 306 310 541.5 545 737 742>
LayerCount: 2
Fore
SplineSet
657 680 m 0
 701 680 724 683 750 683 c 0
 760 683 763 681 763 673 c 0
 763 669 756 644 755 643 c 0
 753 638 750 637 734 637 c 0
 681 633 648 618 617 587 c 0
 610 580 551 511 477 424 c 2
 348 273 l 1
 322 169 l 2
 302 90 295 66 295 57 c 0
 295 46 327 46 363 46 c 0
 386 46 389 45 389 36 c 0
 389 28 385 9 383 6 c 0
 381 2 380 1 366 1 c 0
 326 1 291 2 232 2 c 0
 174 2 139 1 102 1 c 0
 89 1 85 2 85 8 c 0
 85 13 90 38 92 40 c 0
 94 45 96 46 129 46 c 0
 182 47 191 50 198 63 c 0
 200 67 208 97 227 171 c 2
 252 274 l 1
 129 623 l 1
 117 635 112 636 66 637 c 0
 36 637 30 637 30 647 c 0
 30 649 31 653 33 661 c 0
 37 677 38 679 42 682 c 0
 44 683 47 683 56 683 c 0
 88 681 126 680 165 680 c 0
 199 680 287 680 306 683 c 2
 316 683 l 1
 323 676 325 676 320 656 c 0
 316 642 316 643 310 637 c 1
 298 637 l 2
 271 637 242 633 242 624 c 0
 242 616 342 334 343 333 c 0
 343 332 371 364 454 461 c 0
 515 532 566 593 568 596 c 0
 575 606 577 609 577 618 c 0
 577 629 566 635 545 637 c 0
 532 637 528 639 528 647 c 0
 528 650 529 655 530 661 c 0
 534 679 534 683 549 683 c 0
 581 683 612 680 657 680 c 0
EndSplineSet
EndChar

StartChar: Z
Encoding: 90 90 28
Width: 683
GlyphClass: 2
Flags: MW
HStem: 0 49<192.5 274 185 416> 637 46<512 553.5>
VStem: 579 49
LayerCount: 2
Fore
SplineSet
58 8 m 0
 58 13 63 33 64 35 c 0
 64 36 595 634 596 635 c 0
 597 637 595 637 512 637 c 0
 440 636 425 636 414 635 c 0
 309 621 258 563 228 469 c 0
 225 459 221 449 221 448 c 0
 219 444 215 443 202 443 c 0
 187 443 185 444 182 453 c 1
 214 561 l 2
 232 620 247 671 248 674 c 0
 250 678 251 680 253 681 c 0
 256 683 261 683 487 683 c 2
 718 683 l 2
 720 681 723 679 723 675 c 0
 723 671 718 653 717 649 c 2
 717 649 189 54 188 52 c 2
 185 49 l 1
 274 49 l 2
 347 50 366 50 377 51 c 0
 474 63 525 104 563 201 c 0
 567 210 574 230 579 247 c 0
 590 280 591 282 603 282 c 2
 607 282 l 2
 620 282 628 281 628 271 c 0
 628 269 549 6 541 2 c 0
 538 0 532 0 300 0 c 0
 85 0 63 0 61 2 c 0
 59 4 58 5 58 8 c 0
EndSplineSet
EndChar

StartChar: a
Encoding: 97 97 29
Width: 529
GlyphClass: 2
Flags: MW
HStem: -10 36<158 177 390.5 400.5> 405 36<256.5 292>
VStem: 33 85<83 161> 463 43
LayerCount: 2
Fore
SplineSet
487 153 m 2
 502 153 506 153 506 144 c 0
 506 141 505 137 503 129 c 0
 488 71 471 35 449 13 c 0
 438 2 429 -3 417 -8 c 0
 409 -10 408 -10 393 -10 c 0
 351 -10 320 10 305 39 c 0
 303 44 300 49 300 51 c 0
 299 53 299 52 292 46 c 0
 261 17 229 -2 197 -9 c 0
 191 -10 182 -10 172 -10 c 0
 118 -10 87 14 63 45 c 0
 42 76 33 109 33 157 c 0
 33 165 33 173 34 179 c 0
 44 267 97 350 158 396 c 0
 193 423 233 441 280 441 c 0
 323 441 349 418 370 392 c 1
 379 409 395 422 416 422 c 0
 432 422 449 411 449 394 c 0
 449 367 374 102 374 68 c 0
 374 44 379 26 402 26 c 0
 410 27 415 30 422 35 c 0
 438 50 449 77 463 131 c 0
 469 152 468 153 483 153 c 2
 487 153 l 2
118 106 m 0
 118 60 137 26 179 26 c 0
 198 26 219 34 241 50 c 0
 258 61 293 100 298 110 c 0
 301 115 351 317 351 328 c 0
 351 337 344 354 340 362 c 0
 327 388 307 405 277 405 c 0
 219 405 178 343 160 293 c 0
 146 255 124 165 119 129 c 0
 119 122 118 114 118 106 c 0
EndSplineSet
EndChar

StartChar: b
Encoding: 98 98 30
Width: 429
GlyphClass: 2
Flags: MW
HStem: -11 37<170.5 188.5 170.5 233.5> 405 37<278 288 278 297.5> 637 46<88 101> 674 20G<233 237>
VStem: 40 74<113.5 124.5 96 161> 336 86<311.5 324 204.5 348.5>
LayerCount: 2
Fore
SplineSet
89 683 m 0xec
 91 683 232 694 234 694 c 0xdc
 240 694 246 691 246 685 c 0
 246 680 242 660 212 542 c 0
 193 464 176 400 176 399 c 0
 176 397 178 398 182 402 c 0
 204 420 233 434 258 440 c 0
 264 441 273 442 283 442 c 0
 293 442 302 441 308 440 c 0
 376 424 422 368 422 280 c 0
 422 129 294 -11 173 -11 c 0
 153 -11 136 -7 118 2 c 0
 69 24 40 77 40 150 c 0
 40 172 41 184 46 207 c 0
 46 209 147 615 147 616 c 0
 150 639 130 636 101 637 c 0
 80 637 80 637 77 640 c 0
 72 644 72 648 76 664 c 0
 79 675 80 678 83 680 c 0
 85 682 87 683 89 683 c 0xec
336 325 m 0
 336 372 320 405 275 405 c 0
 271 405 266 404 263 404 c 0
 230 397 195 372 165 332 c 0
 161 328 158 323 157 322 c 0
 156 317 123 186 120 170 c 0
 115 144 114 135 114 114 c 0
 114 78 120 60 138 42 c 0
 149 31 163 26 178 26 c 0
 199 26 223 37 245 58 c 0
 279 89 295 126 318 219 c 0
 332 275 336 298 336 325 c 0
EndSplineSet
EndChar

StartChar: c
Encoding: 99 99 31
Width: 433
GlyphClass: 2
Flags: MW
HStem: -11 37<193 208.5> 404 38<303 317.5 303 328>
VStem: 34 87<103 175>
LayerCount: 2
Fore
SplineSet
406 121 m 0
 412 121 429 103 429 98 c 0
 429 91 409 71 398 61 c 0
 356 23 302 0 241 -9 c 0
 230 -10 215 -11 202 -11 c 0
 129 -11 78 25 53 77 c 0
 40 102 34 126 34 159 c 0
 34 191 40 220 53 253 c 0
 92 353 188 430 287 441 c 0
 293 442 300 442 306 442 c 0
 329 442 352 438 371 431 c 0
 406 416 427 387 427 355 c 0
 427 314 399 285 360 285 c 0
 335 285 319 300 319 325 c 0
 319 348 333 371 355 381 c 0
 360 384 365 386 366 386 c 2
 367 387 l 2
 367 390 350 404 306 404 c 0
 283 404 270 401 249 390 c 0
 233 383 220 373 206 359 c 0
 171 324 153 283 132 194 c 0
 125 164 121 139 121 119 c 0
 121 87 129 66 147 50 c 0
 162 34 177 26 209 26 c 0
 220 26 232 27 240 28 c 0
 302 37 355 66 394 111 c 0
 400 118 403 121 406 121 c 0
EndSplineSet
EndChar

StartChar: d
Encoding: 100 100 32
Width: 520
GlyphClass: 2
Flags: MW
HStem: -10 36<158 177 390.5 400.5> 405 37<273.5 297 273.5 299> 637 46<362 367 362 378 357 367> 674 20G<509.5 513.5>
VStem: 33 85<83 193.5>
LayerCount: 2
Fore
SplineSet
438 688 m 0xe8
 475 691 508 694 511 694 c 0xd8
 516 694 523 692 523 686 c 0
 523 674 377 97 375 83 c 0
 374 78 374 73 374 68 c 0
 374 44 379 26 402 26 c 0
 410 27 415 30 422 35 c 0
 438 50 449 77 463 131 c 0
 469 152 468 153 483 153 c 2
 487 153 l 2
 501 153 506 152 506 145 c 0
 506 141 505 137 503 129 c 0
 488 71 471 35 449 13 c 0
 438 2 429 -3 417 -8 c 0
 409 -10 408 -10 393 -10 c 0
 351 -10 320 10 305 39 c 0
 303 44 300 49 300 51 c 0
 299 53 299 52 292 46 c 0
 261 17 229 -2 197 -9 c 0
 191 -10 182 -10 172 -10 c 0
 118 -10 87 14 63 45 c 0
 42 76 33 109 33 157 c 0
 33 230 68 297 101 341 c 0
 141 390 188 423 239 436 c 0
 253 440 267 442 280 442 c 0
 314 442 347 425 364 400 c 0
 368 395 369 394 369 396 c 0
 371 401 423 610 424 616 c 0
 424 625 423 629 418 632 c 0
 412 634 400 636 378 637 c 2
 357 637 l 1
 350 644 348 642 353 664 c 0
 356 676 358 683 366 683 c 0
 368 683 400 686 438 688 c 0xe8
352 326 m 1
 340 369 321 405 277 405 c 0
 219 405 178 343 160 293 c 0
 146 255 124 165 119 129 c 0
 119 122 118 114 118 106 c 0
 118 60 137 26 179 26 c 0
 223 26 265 67 290 98 c 2
 298 109 l 1
 352 326 l 1
EndSplineSet
EndChar

StartChar: e
Encoding: 101 101 33
Width: 466
GlyphClass: 2
Flags: MW
HStem: -11 37<187 242.5> 223 37<163 176> 405 37<307 310 310 324>
VStem: 39 86<98.5 180> 373 48<350.5 353>
LayerCount: 2
Fore
SplineSet
406 121 m 0
 412 121 429 103 429 98 c 0
 429 91 409 71 398 61 c 0
 348 17 280 -11 205 -11 c 0
 169 -11 139 -3 112 16 c 0
 98 24 81 42 72 55 c 0
 52 85 39 120 39 168 c 0
 39 192 42 220 47 243 c 0
 74 344 166 427 291 441 c 0
 292 442 299 442 307 442 c 2
 310 442 l 2
 366 442 408 415 420 373 c 0
 421 369 421 362 421 355 c 0
 421 346 421 337 419 330 c 0
 403 277 366 251 310 237 c 0
 275 228 242 224 176 223 c 0
 140 223 139 223 138 221 c 0
 138 219 137 214 136 208 c 0
 129 177 125 151 125 128 c 0
 125 69 150 26 209 26 c 0
 284 26 350 60 394 111 c 0
 400 118 403 121 406 121 c 0
373 353 m 0
 369 388 343 405 305 405 c 0
 281 405 255 397 233 385 c 0
 199 365 176 336 160 294 c 0
 156 283 149 263 149 261 c 0
 149 260 157 260 169 260 c 0
 188 260 216 261 230 262 c 0
 308 268 341 281 366 319 c 0
 372 332 373 340 373 353 c 0
EndSplineSet
EndChar

StartChar: f
Encoding: 102 102 34
Width: 490
GlyphClass: 2
Flags: MW
HStem: -205 37<142 151.5> 385 46<223.5 242 242 264.5 223.5 289 409 428> 668 37<447 461.5>
VStem: 55 107<-116 -112> 443 107<611 616>
LayerCount: 2
Fore
SplineSet
118 -162 m 1
 127 -164 137 -168 147 -168 c 0
 165 -168 178 -148 187 -126 c 0
 210 -63 285 378 289 382 c 1
 289 385 l 1
 242 385 l 2
 198 385 195 385 192 387 c 0
 187 390 186 393 190 409 c 0
 192 416 194 424 195 425 c 0
 198 431 197 431 250 431 c 0
 279 431 298 431 298 432 c 0
 298 434 315 525 319 540 c 0
 334 608 351 645 382 672 c 0
 406 692 428 705 465 705 c 0
 510 702 550 676 550 630 c 0
 550 592 523 561 487 561 c 0
 461 561 443 575 443 603 c 0
 443 629 459 648 478 657 c 2
 487 662 l 1
 478 665 466 668 457 668 c 0
 437 668 424 650 419 630 c 0
 402 563 383 436 380 433 c 0
 380 431 383 431 435 431 c 0
 494 431 498 431 498 423 c 0
 498 417 492 394 491 391 c 0
 488 385 490 385 428 385 c 2
 372 385 l 1
 349 263 l 2
 322 122 311 66 303 32 c 0
 279 -75 252 -135 212 -173 c 0
 188 -194 164 -205 139 -205 c 0
 92 -205 55 -177 55 -132 c 0
 55 -92 81 -61 118 -61 c 0
 144 -61 162 -75 162 -103 c 0
 162 -129 146 -148 127 -157 c 2
 118 -162 l 1
EndSplineSet
EndChar

StartChar: g
Encoding: 103 103 35
Width: 477
GlyphClass: 2
Flags: MW
HStem: -205 38<139 166 139 200.5> 0 38<190.5 230> 405 37<304 330.5>
VStem: 10 80<-164 -120.5> 66 85<116 131.5 94.5 179.5>
LayerCount: 2
Fore
SplineSet
311 43 m 1xe8
 299 32 254 0 206 0 c 0
 116 0 66 72 66 160 c 0
 66 199 75 241 95 281 c 0
 125 344 171 392 227 420 c 0
 256 434 281 442 314 442 c 0
 356 442 379 420 401 394 c 1
 401 394 403 396 405 399 c 0
 413 412 431 422 447 422 c 0
 463 422 480 410 480 394 c 0
 480 371 365 -76 363 -80 c 0
 338 -152 250 -205 151 -205 c 0xe8
 74 -205 29 -190 15 -161 c 0
 11 -154 10 -145 10 -137 c 0
 10 -104 36 -71 74 -71 c 0
 97 -71 116 -87 116 -111 c 0
 116 -146 90 -162 90 -164 c 2xf0
 91 -164 l 2
 98 -166 127 -167 151 -167 c 0
 181 -167 191 -166 211 -155 c 0
 241 -140 271 -107 282 -75 c 0
 283 -72 291 -44 298 -13 c 0
 308 24 311 40 311 43 c 1xe8
384 328 m 1
 370 371 355 405 306 405 c 0
 302 405 297 404 294 404 c 0
 268 398 241 379 221 352 c 0
 199 323 187 292 168 217 c 0
 155 165 151 146 151 117 c 0
 151 72 168 38 213 38 c 0
 257 38 299 76 323 108 c 2
 331 118 l 1
 384 328 l 1
EndSplineSet
EndChar

StartChar: h
Encoding: 104 104 36
Width: 576
GlyphClass: 2
Flags: MW
HStem: -10 36<414.5 434.5> 404 38<343 367.5> 637 46<133 138 133 149 128 138> 674 20G<281 285>
VStem: 48 79<16 16> 325 77<50 59 50 80.5> 398 80<338.5 364> 513 42
LayerCount: 2
Fore
SplineSet
414 -10 m 0xdd
 363 -10 325 24 325 74 c 0xdd
 325 87 329 101 335 118 c 0
 363 190 387 265 395 307 c 0
 397 317 398 332 398 345 c 0
 398 383 386 404 349 404 c 0
 337 404 331 404 323 402 c 0
 276 392 240 362 205 306 c 1
 198 293 l 1
 164 158 l 2
 138 53 129 21 127 16 c 0
 120 1 103 -11 83 -11 c 0
 69 -11 48 -1 48 16 c 0
 48 30 60 78 121 320 c 2
 195 616 l 2
 195 625 194 629 189 632 c 0
 183 634 171 636 149 637 c 2
 128 637 l 1
 121 644 119 642 124 664 c 0
 127 676 129 683 137 683 c 0xeb
 139 683 280 694 282 694 c 0
 288 694 294 691 294 685 c 0
 294 680 290 658 258 534 c 0
 237 452 220 384 220 383 c 0
 220 381 222 383 227 388 c 0
 260 418 299 442 357 442 c 0
 428 442 478 407 478 336 c 0xdb
 478 323 477 308 475 298 c 0
 468 260 449 201 420 121 c 0
 405 80 402 68 402 50 c 0
 403 32 407 26 422 26 c 0
 459 26 494 70 513 138 c 0
 517 153 517 153 535 153 c 0
 549 153 555 154 555 145 c 0
 555 142 553 137 551 130 c 0
 541 94 521 56 500 33 c 0
 480 8 455 -10 414 -10 c 0xdd
EndSplineSet
EndChar

StartChar: i
Encoding: 105 105 37
Width: 345
GlyphClass: 2
Flags: MW
HStem: -11 37<159.5 169.5 159.5 196> 404 38<146.5 154 154 156> 557 104<230.5 242.5>
VStem: 21 40<287 287> 74 75<48 55.5 43.5 78.5> 173 77<375 383.5 352 387.5> 184 106<604.5 615.5>
LayerCount: 2
Fore
SplineSet
184 600 m 0xfa
 184 631 214 661 247 661 c 0
 271 661 290 644 290 619 c 0
 290 590 259 557 226 557 c 0
 202 557 184 574 184 600 c 0xfa
161 -11 m 0
 109 -11 74 22 74 74 c 0
 74 83 74 91 76 97 c 0
 77 101 167 340 168 344 c 0
 172 357 173 370 173 380 c 0
 173 395 169 404 156 404 c 2
 154 404 l 2
 137 404 123 397 108 381 c 0
 88 360 71 327 61 287 c 0
 57 278 60 278 41 278 c 2
 27 278 l 2
 25 280 21 283 21 287 c 0
 21 290 22 294 24 301 c 0
 40 353 68 399 100 421 c 0
 117 434 135 442 158 442 c 0
 210 442 250 410 250 357 c 0xfc
 250 347 248 337 245 327 c 0
 244 323 155 86 154 83 c 0
 151 70 149 60 149 51 c 0
 149 36 153 26 166 26 c 0
 173 26 184 28 191 32 c 0
 220 46 244 83 260 137 c 0
 264 153 264 153 282 153 c 0
 297 153 302 153 302 143 c 0
 302 140 301 136 299 130 c 0
 278 66 231 -11 161 -11 c 0
EndSplineSet
EndChar

StartChar: j
Encoding: 106 106 38
Width: 412
GlyphClass: 2
Flags: MW
HStem: -204 36<74.5 85.5> 405 37<268 270.5> 557 104<343.5 358>
VStem: -12 107<-125.5 -118> 289 78<332 367> 297 106<605 613.5>
LayerCount: 2
Fore
SplineSet
297 596 m 0xf4
 297 631 326 661 361 661 c 0
 384 661 401 645 403 623 c 0
 403 587 376 557 340 557 c 0
 317 557 299 572 297 596 c 0xf4
288 376 m 0
 288 393 279 405 262 405 c 0
 255 405 248 404 239 401 c 0
 203 389 167 348 144 292 c 0
 137 278 142 278 121 278 c 2
 107 278 l 1
 101 284 99 285 105 299 c 0
 124 344 153 385 183 409 c 0
 204 426 229 438 252 441 c 0
 255 441 264 442 272 442 c 0
 290 441 302 438 316 432 c 0
 346 414 367 396 367 348 c 2
 367 332 l 1
 318 133 l 2
 289 20 266 -69 264 -75 c 0
 243 -132 187 -181 124 -198 c 0
 103 -203 96 -204 75 -204 c 0
 26 -204 -12 -183 -12 -137 c 0
 -12 -99 21 -71 53 -71 c 0
 78 -71 95 -86 95 -112 c 0
 95 -139 80 -157 63 -167 c 1
 68 -168 72 -168 77 -168 c 0
 126 -168 166 -116 182 -74 c 0
 182 -73 289 335 289 365 c 0xf8
 289 369 289 372 288 376 c 0
EndSplineSet
EndChar

StartChar: k
Encoding: 107 107 39
Width: 521
GlyphClass: 2
Flags: MW
HStem: -11 37<371 386.5 371 389> 288 103<451 451 451 459> 405 37<426.5 440.5> 637 46<136 149> 674 20G<281 284.5>
VStem: 48 81 277 77<59 74.5 55 99> 283 82<137 149.5> 394 109<316 390.5> 459 37
LayerCount: 2
Fore
SplineSet
137 683 m 0xf6
 139 683 280 694 282 694 c 0
 287 694 294 692 294 686 c 0
 294 681 288 655 244 477 c 0
 201 307 194 275 194 272 c 2
 194 272 213 282 223 291 c 0
 238 302 247 310 278 340 c 0
 327 389 341 402 362 415 c 0
 389 433 415 442 438 442 c 0
 478 442 503 412 503 369 c 0
 503 323 480 288 438 288 c 0
 413 288 394 304 394 328 c 0
 394 362 421 387 451 391 c 1
 458 393 l 1
 451 400 447 405 434 405 c 0
 405 405 384 393 354 371 c 0xee80
 340 360 331 352 296 317 c 0
 256 278 250 274 228 255 c 1
 245 251 275 244 292 238 c 0
 324 225 345 208 356 186 c 0
 363 172 365 163 365 147 c 0xed
 365 123 354 83 354 66 c 0
 354 44 361 26 381 26 c 0
 392 26 404 31 414 41 c 0
 431 58 445 89 459 145 c 0
 461 152 463 153 479 153 c 0
 491 153 493 153 495 151 c 0
 499 148 500 144 496 130 c 0
 479 72 455 28 427 7 c 0
 413 -3 400 -11 378 -11 c 0
 316 -11 277 28 277 90 c 0xee40
 277 108 283 129 283 145 c 0xed
 283 154 281 162 277 170 c 0
 269 185 251 200 228 209 c 0
 216 213 189 220 182 220 c 2
 180 220 l 1
 148 101 139 50 129 21 c 0
 123 4 104 -11 83 -11 c 0
 69 -11 48 -2 48 16 c 0
 48 39 195 616 195 616 c 2
 198 639 178 636 149 637 c 0
 128 637 128 637 125 640 c 0
 120 644 120 648 124 664 c 0
 127 675 128 678 131 680 c 0
 133 682 135 683 137 683 c 0xf6
EndSplineSet
EndChar

StartChar: l
Encoding: 108 108 40
Width: 298
GlyphClass: 2
Flags: MW
HStem: 674 20G<253.5 256.5>
VStem: 38 79<55 68 55 88> 205 43
LayerCount: 2
Fore
SplineSet
137 -11 m 0
 78 -11 38 25 38 85 c 0
 38 91 38 97 39 102 c 2
 104 360 l 2
 138 497 166 613 167 616 c 0
 170 639 150 636 122 637 c 0
 99 637 97 638 94 644 c 0
 93 647 93 648 96 661 c 0
 100 677 101 680 105 682 c 0
 110 684 253 694 254 694 c 0
 259 694 266 692 266 686 c 0
 266 666 123 116 118 83 c 0
 118 78 117 71 117 65 c 0
 117 45 119 35 131 28 c 0
 136 26 149 26 155 29 c 0
 175 40 189 67 205 131 c 0
 211 152 210 153 225 153 c 2
 229 153 l 2
 245 153 248 154 248 144 c 0
 248 135 234 87 225 66 c 0
 206 22 183 -2 153 -9 c 0
 148 -10 143 -11 137 -11 c 0
EndSplineSet
EndChar

StartChar: m
Encoding: 109 109 41
Width: 878
GlyphClass: 2
Flags: MW
HStem: -10 36<716.5 725.5> 404 38<368 392.5 648 669.5>
VStem: 74 77<17 17> 154 77<368.5 370.5 368.5 379.5> 350 78 627 77<50 84.5> 700 80<338.5 364>
LayerCount: 2
Fore
SplineSet
108 -11 m 0xfa
 91 -11 74 -1 74 17 c 0
 74 28 81 58 112 181 c 0
 133 264 151 337 151 342 c 0
 153 352 154 361 154 369 c 0
 154 390 147 405 129 405 c 0
 122 405 115 402 109 398 c 0
 91 384 79 356 61 287 c 0
 57 278 60 278 41 278 c 2
 27 278 l 2
 25 280 21 284 21 287 c 0
 21 290 29 321 35 337 c 0
 48 375 61 401 79 418 c 0
 95 434 107 442 132 442 c 0
 174 442 205 424 220 397 c 0
 224 390 231 372 231 369 c 0
 231 368 231 367 232 367 c 2
 243 378 l 2
 278 415 318 442 384 442 c 0
 450 442 488 414 501 360 c 1
 502 357 l 1
 510 367 l 2
 536 398 564 418 596 431 c 0
 616 438 637 442 659 442 c 0
 730 442 780 407 780 336 c 0xfa
 780 323 779 308 777 298 c 0
 770 260 751 201 722 121 c 0
 707 81 704 68 704 50 c 0
 705 32 709 26 724 26 c 0
 761 26 796 70 815 138 c 0
 819 153 819 153 837 153 c 0
 851 153 857 154 857 145 c 0
 857 142 855 137 853 130 c 0
 836 70 804 24 759 -1 c 0
 743 -9 735 -10 716 -10 c 0
 688 -10 667 0 651 14 c 0
 639 28 627 51 627 73 c 0xfc
 627 96 629 97 641 129 c 0
 671 208 689 265 697 307 c 0
 699 317 700 332 700 345 c 0
 700 383 688 404 651 404 c 0
 639 404 633 404 625 402 c 0
 578 392 540 361 506 303 c 2
 499 291 l 1
 466 157 l 2
 438 46 431 22 428 16 c 0
 420 -1 402 -11 385 -11 c 0
 369 -11 358 -4 353 9 c 0
 352 12 350 14 350 18 c 0
 350 29 357 56 384 161 c 2
 420 307 l 2
 422 317 423 332 423 345 c 0
 423 383 411 404 374 404 c 0
 362 404 356 404 348 402 c 0
 301 392 263 361 229 303 c 2
 222 291 l 1
 189 157 l 2
 161 46 154 22 151 16 c 0
 143 -1 125 -11 108 -11 c 0xfa
EndSplineSet
EndChar

StartChar: n
Encoding: 110 110 42
Width: 600
GlyphClass: 2
Flags: MW
HStem: -10 36<437 448.5> 405 37<131.5 138>
VStem: 21 39<284 287.5> 74 77<17 17> 153 78<368.5 370.5 368.5 377> 350 77<43.5 84.5> 423 80<338.5 364>
LayerCount: 2
Fore
SplineSet
108 -11 m 0xfa
 91 -11 74 -1 74 17 c 0
 74 40 146 308 152 343 c 0
 153 348 153 358 153 366 c 0
 153 388 147 405 129 405 c 0
 109 405 98 390 87 368 c 0
 81 356 72 329 66 305 c 0
 63 295 60 285 60 284 c 0
 58 279 56 278 41 278 c 2
 27 278 l 2
 25 280 21 284 21 287 c 0
 21 288 23 298 26 308 c 0
 41 367 69 429 118 440 c 0
 122 441 128 442 135 442 c 0
 176 442 205 423 220 397 c 0
 224 390 231 372 231 369 c 0
 231 368 231 367 232 367 c 2
 243 378 l 2
 278 414 318 442 382 442 c 0
 453 442 503 407 503 336 c 0xfa
 503 323 502 308 500 298 c 0
 493 260 474 200 445 123 c 0
 430 83 427 70 427 52 c 0
 427 35 430 26 444 26 c 0
 494 26 526 93 540 145 c 0
 542 152 544 153 560 153 c 0
 574 153 580 154 580 145 c 0
 580 142 578 137 576 130 c 0
 559 70 527 24 482 -1 c 0
 466 -9 458 -10 439 -10 c 0
 411 -10 390 0 374 14 c 0
 362 28 350 51 350 73 c 0xfc
 350 96 352 97 364 129 c 0
 394 208 412 265 420 307 c 0
 422 317 423 332 423 345 c 0
 423 383 411 404 374 404 c 0
 362 404 356 404 348 402 c 0
 301 392 263 361 229 303 c 2
 222 291 l 1
 189 157 l 2
 161 46 154 22 151 16 c 0
 143 -1 125 -11 108 -11 c 0xfa
EndSplineSet
EndChar

StartChar: o
Encoding: 111 111 43
Width: 485
GlyphClass: 2
Flags: MW
HStem: -11 37<181 211.5 181 247> 405 36<287 301 301 308 287 334>
VStem: 34 87<91 163.5> 388 88<302 316.5 242.5 337.5>
LayerCount: 2
Fore
SplineSet
287 441 m 1
 301 441 l 2
 315 441 333 441 341 440 c 0
 423 425 476 365 476 268 c 0
 476 217 466 190 445 150 c 0
 395 53 293 -11 201 -11 c 0
 105 -11 48 51 35 134 c 0
 34 140 34 148 34 156 c 0
 34 171 35 187 37 198 c 0
 49 268 95 337 146 380 c 0
 188 413 240 436 287 441 c 1
121 120 m 0
 121 62 156 26 206 26 c 0
 217 26 230 28 242 32 c 0
 288 47 328 87 351 142 c 0
 363 172 379 232 387 277 c 0
 388 283 388 296 388 308 c 0
 388 367 362 405 306 405 c 0
 268 405 225 383 195 347 c 0
 171 318 156 286 141 231 c 0
 127 180 121 147 121 120 c 0
EndSplineSet
EndChar

StartChar: p
Encoding: 112 112 44
Width: 503
GlyphClass: 2
Flags: MW
HStem: -194 46<-26 -24 -32 -6 163 179> -10 36<239.5 258.5> 405 37<127.5 141.5 353 363>
VStem: 411 86<311.5 324.5 264.5 348.5>
LayerCount: 2
Fore
SplineSet
29 278 m 2
 27 280 23 284 23 287 c 0
 23 290 30 316 36 334 c 0
 49 374 63 400 81 418 c 0
 97 434 109 442 134 442 c 0
 185 442 218 415 230 378 c 1
 240 387 l 2
 268 413 295 431 333 440 c 0
 339 441 348 442 358 442 c 0
 368 442 377 441 383 440 c 0
 451 424 497 368 497 281 c 0
 497 248 490 214 478 179 c 0
 445 91 374 20 297 -4 c 0
 279 -9 268 -10 249 -10 c 0
 230 -10 224 -9 210 -4 c 0
 185 7 161 36 161 36 c 2
 159 34 118 -137 118 -138 c 0
 118 -149 135 -147 163 -148 c 2
 188 -148 l 1
 194 -156 196 -155 191 -175 c 0
 187 -190 186 -194 172 -194 c 0
 139 -194 101 -192 65 -192 c 0
 29 -192 -5 -192 -24 -194 c 2
 -32 -194 l 2
 -35 -191 -39 -188 -39 -183 c 0
 -39 -177 -32 -154 -30 -151 c 2
 -26 -148 l 1
 -6 -148 l 2
 24 -147 29 -145 33 -136 c 0
 37 -128 152 333 155 350 c 0
 156 355 156 360 156 364 c 0
 156 387 152 405 131 405 c 0
 124 405 117 403 111 398 c 0
 93 384 81 356 63 287 c 0
 59 278 62 278 43 278 c 2
 29 278 l 2
411 325 m 0
 411 372 395 405 350 405 c 0
 346 405 341 404 338 404 c 0
 305 397 270 372 240 332 c 0
 236 328 233 323 232 322 c 0
 232 320 219 271 204 212 c 0
 183 126 178 105 178 102 c 0
 180 95 187 74 191 67 c 0
 205 41 227 26 252 26 c 0
 296 26 333 61 356 107 c 0
 370 133 379 161 393 219 c 0
 407 275 411 298 411 325 c 0
EndSplineSet
EndChar

StartChar: q
Encoding: 113 113 45
Width: 446
GlyphClass: 2
Flags: MW
HStem: -194 46<370 383 370 370> -10 36<158 177> 405 36<256.5 299>
VStem: 33 85<83 161>
LayerCount: 2
Fore
SplineSet
262 -192 m 0
 224 -192 190 -193 157 -193 c 0
 146 -193 142 -191 142 -185 c 0
 142 -181 144 -177 145 -170 c 0
 150 -148 150 -148 172 -148 c 0
 202 -148 224 -145 230 -141 c 0
 243 -132 275 28 279 32 c 0
 279 34 277 32 272 29 c 0
 250 11 222 -3 197 -9 c 0
 191 -10 182 -10 172 -10 c 0
 118 -10 87 14 63 45 c 0
 42 76 33 109 33 157 c 0
 33 165 33 173 34 179 c 0
 44 267 97 350 158 396 c 0
 193 423 233 441 280 441 c 0
 323 441 353 417 372 389 c 1
 380 397 389 409 404 418 c 0
 418 428 446 442 450 442 c 0
 453 442 460 439 460 434 c 0
 460 428 453 397 391 149 c 0
 342 -47 320 -136 320 -139 c 0
 320 -148 338 -147 365 -148 c 2
 390 -148 l 1
 396 -156 398 -154 393 -175 c 0
 389 -189 389 -188 383 -194 c 1
 370 -194 l 2
 339 -192 301 -192 262 -192 c 0
352 326 m 1
 340 369 321 405 277 405 c 0
 219 405 178 343 160 293 c 0
 146 255 124 165 119 129 c 0
 119 122 118 114 118 106 c 0
 118 60 137 26 179 26 c 0
 223 26 265 67 290 98 c 2
 298 109 l 1
 352 326 l 1
EndSplineSet
EndChar

StartChar: r
Encoding: 114 114 46
Width: 451
GlyphClass: 2
Flags: MW
HStem: 405 37<124.5 138>
VStem: 74 77<17 17> 322 108<342 346>
LayerCount: 2
Fore
SplineSet
108 -11 m 0
 91 -11 74 -1 74 17 c 0
 74 45 154 331 154 366 c 0
 154 389 148 405 128 405 c 0
 121 405 115 403 109 398 c 0
 91 384 79 356 61 287 c 0
 57 278 60 278 41 278 c 2
 27 278 l 2
 25 280 21 284 21 287 c 0
 21 290 28 316 34 334 c 0
 47 374 61 400 79 418 c 0
 95 434 107 442 132 442 c 0
 159 442 180 435 196 423 c 0
 208 414 221 399 225 388 c 0
 228 379 227 379 236 389 c 0
 260 415 289 433 321 440 c 0
 327 441 334 441 347 441 c 0
 396 441 430 411 430 363 c 0
 430 321 405 288 366 288 c 0
 341 288 322 304 322 328 c 0
 322 364 349 384 378 392 c 1
 366 399 360 405 342 405 c 0
 329 405 315 402 302 395 c 0
 280 384 258 361 239 331 c 0
 226 310 229 321 190 165 c 0
 161 47 154 22 151 16 c 0
 143 -1 125 -11 108 -11 c 0
EndSplineSet
EndChar

StartChar: s
Encoding: 115 115 47
Width: 469
GlyphClass: 2
Flags: MW
HStem: -10 37<185 227.5 185 241.5> 292 86<366.5 368 366.5 381> 405 37<271.5 317.5>
VStem: 53 107<79 132> 131 73<269 349.5> 323 73<114.5 163> 369 50<337 381.5>
LayerCount: 2
Fore
SplineSet
118 160 m 0xf4
 144 160 160 144 160 120 c 0
 160 98 147 74 125 63 c 0
 120 61 114 58 111 58 c 0
 108 57 106 56 107 55 c 0
 108 53 119 45 125 42 c 0
 144 32 169 27 201 27 c 0
 254 27 287 43 308 76 c 0
 317 91 323 107 323 122 c 0xf4
 323 146 309 161 290 170 c 0
 280 176 274 177 240 184 c 0
 203 192 194 192 172 207 c 0
 148 224 131 249 131 289 c 0
 131 331 149 365 172 390 c 0
 200 422 243 442 300 442 c 0
 363 442 404 419 417 374 c 0
 419 369 419 362 419 355 c 0
 419 319 398 292 364 292 c 0
 343 292 328 305 328 326 c 0
 328 346 340 365 358 374 c 0
 362 376 366 378 367 378 c 0
 369 378 369 378 369 379 c 0
 369 384 338 405 297 405 c 0
 246 405 204 373 204 326 c 0xea
 204 312 209 303 219 294 c 0
 229 285 234 284 270 276 c 0
 307 268 316 266 330 259 c 0
 362 245 383 220 393 189 c 0
 395 181 395 177 396 163 c 0
 396 131 390 116 379 92 c 0
 348 28 288 -10 195 -10 c 0
 126 -10 77 14 60 52 c 0
 54 65 53 71 53 87 c 0
 53 129 81 160 118 160 c 0xf4
EndSplineSet
EndChar

StartChar: t
Encoding: 116 116 48
Width: 361
GlyphClass: 2
Flags: MW
HStem: -11 37<151 163.5 151 171> 385 46<26 140 272 317>
VStem: 57 78<56.5 101 56.5 101> 183 78
LayerCount: 2
Fore
SplineSet
26 385 m 2
 23 388 19 390 19 395 c 0
 19 400 25 423 27 425 c 0
 30 431 29 431 87 431 c 2
 140 431 l 1
 159 511 l 2
 175 573 180 592 183 598 c 0
 190 614 206 626 229 626 c 0
 246 625 261 614 261 596 c 0
 261 581 222 433 222 433 c 2
 222 431 225 431 272 431 c 2
 323 431 l 2
 326 428 330 425 330 420 c 0
 330 408 321 389 317 385 c 1
 210 385 l 1
 174 240 l 2
 151 147 137 90 136 83 c 0
 135 78 135 73 135 68 c 0
 135 45 140 26 162 26 c 0
 165 26 169 26 174 27 c 0
 206 33 239 62 265 107 c 0
 271 117 279 134 283 144 c 0
 286 152 287 153 303 153 c 0
 316 153 323 152 323 145 c 0
 323 142 321 138 319 133 c 0
 304 89 266 41 234 17 c 0
 213 1 187 -11 155 -11 c 0
 105 -11 71 17 59 56 c 0
 57 64 57 66 57 83 c 2
 57 101 l 1
 92 241 l 2
 111 318 127 382 128 383 c 0
 128 385 125 385 77 385 c 2
 26 385 l 2
EndSplineSet
EndChar

StartChar: u
Encoding: 117 117 49
Width: 572
GlyphClass: 2
Flags: MW
HStem: -11 38<219.5 255.5 215.5 256> 404 38<146 154 154 159>
VStem: 21 40<287 287> 103 79<104 109 82 123> 173 77<368.5 382.5 349.5 388>
LayerCount: 2
Fore
SplineSet
463 431 m 0xf0
 480 431 496 421 496 402 c 0
 496 388 420 84 420 84 c 2
 419 79 419 73 419 68 c 0
 419 44 424 26 447 26 c 0
 462 28 475 40 486 64 c 0
 494 81 501 103 512 145 c 0
 514 152 516 153 532 153 c 0
 547 153 551 153 551 144 c 0
 551 141 550 137 548 129 c 0
 527 47 500 5 462 -8 c 0
 454 -10 452 -10 438 -10 c 0
 391 -10 362 13 347 46 c 1
 347 46 341 41 335 35 c 0
 309 11 279 -11 233 -11 c 0
 206 -11 176 -4 155 7 c 0
 128 23 111 47 104 82 c 0
 103 89 103 95 103 113 c 0xf0
 103 133 103 137 105 150 c 0
 111 185 122 219 151 297 c 0
 172 353 173 358 173 379 c 0
 173 397 171 404 159 404 c 2
 154 404 l 2
 138 404 125 398 110 383 c 0
 89 362 72 329 61 287 c 0
 57 278 60 278 41 278 c 2
 27 278 l 2
 25 280 21 283 21 287 c 0
 21 290 22 294 24 301 c 0
 37 345 61 386 86 410 c 0
 107 429 128 442 158 442 c 0
 214 442 250 407 250 358 c 0xe8
 250 341 248 333 232 291 c 0
 200 205 189 167 183 128 c 0
 182 120 182 113 182 105 c 0
 182 59 193 27 238 27 c 0
 273 27 293 41 314 63 c 0
 322 71 337 90 339 95 c 0
 340 97 357 165 377 247 c 0
 418 411 417 406 427 416 c 0
 437 425 450 431 463 431 c 0xf0
EndSplineSet
EndChar

StartChar: v
Encoding: 118 118 50
Width: 485
GlyphClass: 2
Flags: MW
HStem: -11 37<235 260 235 274> 405 36<152 160.5>
VStem: 102 80<103.5 113 103.5 123.5> 173 76<375 385 356.5 388> 409 58
LayerCount: 2
Fore
SplineSet
241 -11 m 0xe8
 158 -11 102 30 102 117 c 0xe8
 102 130 103 143 104 151 c 0
 110 183 121 220 151 298 c 0
 158 319 166 341 167 346 c 0
 171 358 173 370 173 380 c 0
 173 396 167 405 154 405 c 0
 150 405 144 404 138 402 c 0
 106 391 77 347 61 287 c 0
 57 278 60 278 41 278 c 2
 27 278 l 2
 25 280 21 283 21 287 c 0
 21 290 22 294 24 302 c 0
 38 349 63 393 98 420 c 0
 115 433 133 441 160 441 c 0
 211 441 249 409 249 361 c 0xd8
 249 352 248 341 246 335 c 0
 246 331 239 311 231 291 c 0
 194 191 184 153 182 113 c 0
 182 94 183 83 187 69 c 0
 195 42 220 26 250 26 c 0
 270 26 282 30 298 42 c 0
 339 69 374 133 401 231 c 0
 407 252 409 263 409 277 c 0
 409 308 398 331 370 356 c 0
 361 364 357 373 357 383 c 0
 357 414 387 443 417 443 c 0
 452 443 467 404 467 367 c 0
 467 340 460 304 447 252 c 0
 433 195 420 159 399 118 c 0
 357 32 307 -11 241 -11 c 0xe8
EndSplineSet
EndChar

StartChar: w
Encoding: 119 119 51
Width: 716
GlyphClass: 2
Flags: MW
HStem: -11 37<233.5 274 233.5 278.5 479 485.5> 404 37<146 189 156.5 159>
VStem: 21 40<287 287> 104 80<85 111 111 122.5> 173 77<368.5 381.5 349.5 388> 339 81<96 116 88 119 88 119> 632 58<270.5 388>
LayerCount: 2
Fore
SplineSet
449 431 m 0xf6
 467 431 483 421 483 402 c 0
 483 377 427 180 422 142 c 0
 420 131 420 125 420 107 c 0
 420 69 426 53 446 38 c 0
 458 30 471 26 487 26 c 0
 535 26 572 66 600 148 c 0
 611 177 628 240 631 258 c 0
 632 263 632 268 632 273 c 0
 632 310 620 333 596 353 c 0
 585 362 580 373 580 385 c 0
 580 417 612 443 641 443 c 0
 643 443 645 442 648 442 c 0
 675 435 690 408 690 368 c 0
 690 328 684 310 671 253 c 0
 658 203 645 161 633 130 c 0
 607 65 567 3 501 -10 c 0
 495 -11 489 -11 482 -11 c 0
 423 -11 374 11 355 48 c 1
 331 16 305 -11 252 -11 c 0
 166 -11 104 29 104 116 c 0xf6
 104 129 104 143 106 152 c 0
 111 184 123 221 151 297 c 0
 172 353 173 358 173 379 c 0
 173 397 171 404 159 404 c 2
 154 404 l 2
 138 404 125 398 110 383 c 0
 89 362 72 329 61 287 c 0
 57 278 60 278 41 278 c 2
 27 278 l 2
 25 280 21 283 21 287 c 0
 21 290 22 294 24 301 c 0
 30 319 34 331 43 349 c 0
 67 398 99 429 138 439 c 0
 144 441 152 441 161 441 c 0
 217 441 250 405 250 358 c 0xee
 250 341 248 333 232 291 c 0
 198 200 187 163 184 124 c 2
 184 111 l 2
 184 59 209 26 258 26 c 0
 290 26 312 46 334 87 c 2
 339 96 l 1
 339 119 l 2
 340 135 340 145 342 153 c 0
 342 155 398 388 406 404 c 0
 414 421 432 431 449 431 c 0xf6
EndSplineSet
EndChar

StartChar: x
Encoding: 120 120 52
Width: 572
GlyphClass: 2
Flags: MW
HStem: -10 36<128.5 134.5> 404 38<218.5 232.5 419.5 431.5>
VStem: 52 41<289 289> 465 57<341 391.5>
LayerCount: 2
Fore
SplineSet
58 278 m 2
 55 281 52 283 52 289 c 0
 54 303 70 338 83 358 c 0
 113 403 156 433 201 440 c 0
 208 441 215 442 222 442 c 0
 270 442 312 414 329 379 c 1
 334 386 337 392 345 400 c 0
 369 427 399 442 430 442 c 0
 486 442 522 405 522 361 c 0
 522 321 497 288 458 288 c 0
 432 288 415 304 415 328 c 0
 415 363 439 382 465 391 c 0
 465 392 460 395 454 398 c 0
 446 403 438 404 425 404 c 0
 414 404 412 404 406 402 c 0
 384 393 361 367 350 336 c 0
 346 325 296 124 293 108 c 0
 291 98 290 87 290 78 c 0
 290 46 310 26 341 26 c 0
 401 26 449 89 463 140 c 0
 467 153 468 153 485 153 c 0
 499 153 504 152 504 145 c 0
 504 142 503 139 502 134 c 0
 490 91 463 53 432 26 c 0
 404 4 376 -11 333 -11 c 0
 280 -11 247 17 227 52 c 1
 208 23 182 2 153 -8 c 0
 144 -10 142 -10 127 -10 c 0
 85 -10 59 7 45 31 c 0
 38 43 35 57 35 71 c 0
 35 109 60 143 99 143 c 0
 125 143 142 129 142 101 c 0
 142 75 126 56 107 47 c 0
 102 44 96 42 94 41 c 0
 93 41 91 40 91 40 c 2
 91 39 101 33 106 31 c 0
 113 28 125 26 132 26 c 0
 155 26 177 42 194 71 c 0
 215 107 251 282 261 313 c 0
 264 329 266 341 266 352 c 0
 266 384 248 404 217 404 c 0
 152 404 108 343 93 290 c 0
 90 279 91 278 72 278 c 2
 58 278 l 2
EndSplineSet
EndChar

StartChar: y
Encoding: 121 121 53
Width: 490
GlyphClass: 2
Flags: MW
HStem: -205 38<152 160 160 166.5 152 174.5> -11 38<215.5 237.5> 404 38<146 154 154 159>
VStem: 21 40<287 287> 43 107<-126 -73> 103 79<104 109 82 123> 173 77<368.5 382.5 355 388> 419 77<404 404>
LayerCount: 2
Fore
SplineSet
462 431 m 0xe5
 479 431 496 421 496 403 c 0
 496 383 398 -3 391 -23 c 0
 369 -89 319 -147 257 -179 c 0
 222 -196 193 -205 156 -205 c 0
 110 -205 70 -187 53 -157 c 0
 46 -147 43 -135 43 -117 c 0
 43 -94 48 -78 62 -64 c 0
 75 -52 90 -45 106 -45 c 0
 132 -45 150 -59 150 -87 c 0xe9
 150 -113 134 -132 115 -141 c 0
 110 -144 104 -146 102 -147 c 0
 100 -147 99 -148 99 -148 c 2
 100 -150 112 -158 120 -161 c 0
 131 -165 140 -167 152 -167 c 2
 160 -167 l 2
 173 -167 177 -167 186 -165 c 0
 236 -151 286 -93 310 -18 c 0
 313 -9 321 20 321 21 c 0
 321 22 300 5 270 -6 c 0
 258 -9 244 -11 231 -11 c 0
 163 -11 117 22 104 82 c 0
 103 89 103 95 103 113 c 0xe5
 103 133 103 137 105 150 c 0
 111 185 122 219 151 297 c 0
 172 353 173 358 173 379 c 0
 173 397 171 404 159 404 c 2
 154 404 l 2
 138 404 125 398 110 383 c 0
 89 362 72 329 61 287 c 0
 57 278 60 278 41 278 c 2
 27 278 l 2
 25 280 21 283 21 287 c 0
 21 290 22 294 24 301 c 0
 37 345 61 386 87 410 c 0
 107 429 129 442 158 442 c 0
 214 442 250 410 250 355 c 0xf3
 249 346 249 338 247 334 c 0
 247 330 240 311 232 291 c 0
 200 204 189 166 183 128 c 0
 182 120 182 113 182 105 c 0
 182 59 193 27 238 27 c 0
 287 27 316 64 339 94 c 0
 339 96 357 164 377 247 c 0
 409 372 416 398 419 404 c 0
 427 421 445 431 462 431 c 0xe5
EndSplineSet
EndChar

StartChar: z
Encoding: 122 122 54
Width: 465
GlyphClass: 2
Flags: MW
HStem: -11 82<272 317> 338 37<344 370.5> 360 82<211.5 262>
LayerCount: 2
Fore
SplineSet
41 -11 m 2xa0
 39 -9 35 -6 35 -2 c 0
 35 1 37 5 41 11 c 0
 53 33 74 61 93 84 c 0
 126 122 160 155 236 224 c 0
 289 272 319 300 340 322 c 0
 354 337 354 338 347 338 c 0xc0
 341 338 324 341 294 349 c 0
 262 357 246 360 231 360 c 0
 192 360 163 346 157 326 c 0
 153 318 154 317 138 317 c 0
 122 317 117 318 117 325 c 0
 117 328 118 333 120 339 c 0
 137 391 181 432 229 440 c 0
 235 441 240 442 246 442 c 0xa0
 278 442 293 426 314 405 c 0
 340 380 349 375 367 375 c 0xc0
 374 375 376 375 381 377 c 0
 393 383 406 399 425 430 c 0
 433 442 430 442 449 442 c 2
 462 442 l 2
 464 440 468 437 468 434 c 0
 468 431 465 425 459 414 c 0
 449 398 428 369 411 349 c 0
 379 311 344 276 269 209 c 0
 214 160 181 129 160 106 c 2
 148 94 l 1
 163 93 l 2
 181 93 193 91 220 84 c 0
 255 75 274 71 290 71 c 0
 344 71 390 101 402 140 c 0
 407 152 408 153 424 153 c 0
 437 153 444 151 444 143 c 0
 444 141 443 138 442 134 c 0
 423 67 368 5 295 -10 c 0
 289 -11 283 -11 278 -11 c 0
 266 -11 257 -9 247 -4 c 0
 234 2 228 7 208 26 c 0
 191 43 185 48 177 52 c 0
 172 55 161 57 155 57 c 0
 119 57 91 23 76 -3 c 0
 71 -11 69 -11 54 -11 c 2
 41 -11 l 2xa0
EndSplineSet
EndChar

StartChar: Gamma
Encoding: 915 915 56
Width: 615
GlyphClass: 2
Flags: MW
HStem: 1 45<59 65 65 68 316.5 343> 440 21G<662 674 662 662> 634 46<203 228 197 714 471 507.5>
VStem: 661 60
LayerCount: 2
Fore
SplineSet
49 1 m 0
 35 1 31 2 31 10 c 0
 31 12 32 16 34 24 c 0
 40 45 39 46 59 46 c 2
 65 46 l 2
 88 46 114 48 125 49 c 0
 135 51 140 54 144 61 c 0
 147 68 285 616 285 622 c 0
 285 626 284 629 281 629 c 0
 276 631 255 633 228 634 c 2
 197 634 l 1
 190 641 188 639 193 661 c 0
 197 675 197 674 203 680 c 1
 714 680 l 2
 717 677 721 674 721 669 c 0
 721 662 695 450 694 447 c 0
 692 441 688 440 674 440 c 2
 662 440 l 1
 654 446 654 445 656 468 c 0
 659 494 661 515 661 534 c 0
 661 598 644 620 587 630 c 0
 567 633 544 634 471 634 c 0
 409 633 401 633 396 632 c 0
 391 630 388 627 386 622 c 0
 384 618 245 63 245 60 c 0
 245 56 247 53 251 52 c 0
 259 48 293 46 333 46 c 0
 353 46 358 46 360 44 c 0
 363 43 366 38 366 35 c 0
 366 32 360 9 358 6 c 0
 356 2 355 1 339 1 c 0
 294 1 253 2 187 2 c 0
 123 2 87 1 49 1 c 0
EndSplineSet
EndChar

StartChar: Delta
Encoding: 916 916 57
Width: 833
GlyphClass: 2
Flags: MW
HStem: 0 86<339.5 416 416 529 339.5 781> 696 20G<590 602.5>
LayerCount: 2
Fore
SplineSet
574 715 m 0
 576 715 585 716 595 716 c 0
 610 716 612 716 616 714 c 0
 618 713 621 711 621 709 c 0
 623 706 788 12 788 8 c 2
 788 8 786 5 785 3 c 2
 781 0 l 1
 416 0 l 2
 78 0 52 0 50 2 c 0
 49 3 48 5 48 6 c 0
 48 10 561 706 567 711 c 0
 570 712 573 714 574 715 c 0
599 346 m 2
 538 602 l 2
 537 603 157 88 157 87 c 0
 157 86 270 86 409 86 c 0
 649 86 661 86 661 88 c 0
 660 89 633 205 599 346 c 2
EndSplineSet
EndChar

StartChar: Theta
Encoding: 920 920 58
Width: 763
GlyphClass: 2
Flags: MW
HStem: -22 39<307 319 307 345.5> 299 86<253 537> 667 37<460 462 459 498>
VStem: 50 100<198.5 221 158 253> 640 100<458.5 509 392 521.5>
LayerCount: 2
Fore
SplineSet
459 704 m 1
 476 704 l 2
 493 704 514 704 524 703 c 0
 653 685 740 583 740 435 c 0
 740 349 709 257 653 179 c 0
 616 126 567 79 515 46 c 0
 458 9 387 -22 304 -22 c 0
 235 -22 172 2 126 46 c 0
 77 94 50 153 50 244 c 0
 50 262 50 279 51 289 c 0
 63 379 104 467 167 541 c 0
 180 556 212 588 227 601 c 0
 299 661 379 697 459 704 c 1
640 466 m 0
 640 577 591 654 498 667 c 0
 493 667 486 668 479 668 c 0
 472 668 464 667 460 667 c 0
 364 657 270 582 213 469 c 0
 183 408 160 328 151 255 c 0
 150 245 150 229 150 213 c 0
 150 103 199 35 282 19 c 0
 290 17 301 17 313 17 c 0
 325 17 337 17 346 19 c 0
 429 33 508 95 561 184 c 0
 599 249 628 339 638 426 c 0
 639 435 640 451 640 466 c 0
510 275 m 0
 510 279 515 297 515 298 c 0
 515 299 456 299 384 299 c 2
 253 299 l 1
 250 285 l 2
 247 273 246 270 243 268 c 0
 240 265 240 265 227 265 c 0
 210 265 211 266 207 274 c 0
 207 276 238 412 244 416 c 0
 247 419 247 419 260 419 c 0
 274 419 280 418 280 409 c 0
 280 405 275 387 275 386 c 0
 275 385 334 385 406 385 c 2
 537 385 l 1
 540 399 l 2
 543 411 544 414 547 416 c 0
 550 419 550 419 563 419 c 0
 580 419 579 418 583 410 c 0
 583 407 579 388 566 339 c 0
 549 270 549 265 538 265 c 2
 530 265 l 2
 516 265 510 266 510 275 c 0
EndSplineSet
EndChar

StartChar: Lambda
Encoding: 923 923 59
Width: 694
GlyphClass: 2
Flags: MW
HStem: 0 46<243 247.5 644 644 644 657> 696 20G<516.5 535.5>
VStem: 498 51<709 709>
LayerCount: 2
Fore
SplineSet
240 0 m 0
 209 0 178 2 135 2 c 0
 104 2 74 2 62 1 c 0
 40 0 39 0 36 7 c 0
 35 8 35 9 35 11 c 0
 35 16 41 38 42 40 c 0
 44 44 48 46 55 46 c 0
 100 46 131 64 151 94 c 0
 154 98 498 708 498 709 c 0
 505 716 507 716 526 716 c 0
 545 716 543 716 549 710 c 0
 551 708 588 66 591 57 c 0
 592 55 594 52 595 52 c 0
 600 49 613 47 638 46 c 2
 663 46 l 2
 666 43 670 41 670 35 c 0
 670 23 661 4 657 0 c 1
 644 0 l 2
 613 2 572 2 530 2 c 0
 488 2 445 1 405 1 c 0
 393 1 389 2 389 8 c 0
 389 13 394 38 396 40 c 0
 398 45 402 46 415 46 c 0
 453 46 476 51 487 64 c 1
 472 306 l 2
 464 440 457 549 457 550 c 1
 456 550 201 95 198 88 c 0
 196 84 196 80 196 76 c 0
 196 55 220 48 243 46 c 0
 257 46 262 44 262 36 c 0
 262 33 261 28 259 22 c 0
 255 4 255 0 240 0 c 0
EndSplineSet
EndChar

StartChar: Xi
Encoding: 926 926 60
Width: 742
GlyphClass: 2
Flags: MW
HStem: 0 80<202 335> 313 79<431 565> 598 79<384.5 567.5>
VStem: 53 59 84 35 207 39 251 36 590 45<415 435> 630 35 710 39<519 525>
LayerCount: 2
Fore
SplineSet
222 668 m 0xe640
 222 672 227 675 229 677 c 2
 654 677 l 2
 788 677 774 676 776 671 c 0
 777 670 777 669 777 667 c 0
 777 661 774 646 764 594 c 0
 756 554 749 520 749 519 c 0
 747 513 743 512 729 512 c 2
 717 512 l 1
 713 516 710 517 710 525 c 0
 713 535 719 587 719 591 c 0
 718 595 718 595 711 595 c 0
 692 597 649 598 486 598 c 0
 283 598 251 597 246 592 c 0
 241 588 231 565 223 537 c 0
 217 516 221 512 197 512 c 2
 185 512 l 2
 182 514 178 518 178 522 c 0
 178 525 217 655 222 668 c 0xe640
227 262 m 0
 210 262 213 264 207 270 c 0
 207 273 213 296 227 356 c 0
 247 434 248 438 251 440 c 0
 254 443 254 443 267 443 c 2
 280 443 l 2
 283 441 287 437 287 433 c 0
 287 430 278 394 278 393 c 0
 278 392 326 392 431 392 c 2
 585 392 l 1
 590 415 l 2
 597 442 597 443 612 443 c 2
 628 443 l 2
 631 441 635 437 635 433 c 0xe740
 635 430 596 272 594 268 c 0
 592 263 588 262 575 262 c 0
 563 262 562 262 559 265 c 0
 554 269 554 271 560 293 c 2
 565 313 l 1
 258 313 l 1
 252 292 l 2
 250 280 247 270 246 268 c 0
 244 263 241 262 227 262 c 0
60 0 m 2
 57 3 53 6 53 11 c 0xf6c0
 53 15 83 165 84 169 c 0
 88 176 90 176 104 176 c 2
 116 176 l 1
 120 172 123 171 123 163 c 0
 122 160 121 149 119 138 c 0xee40
 115 119 112 96 112 88 c 0
 112 81 115 80 202 80 c 2
 351 80 l 1
 454 80 l 2
 595 80 592 81 597 89 c 0
 611 115 624 170 630 174 c 0
 633 176 635 176 646 176 c 2
 658 176 l 2
 661 174 665 170 665 166 c 0xf6c0
 665 163 621 15 618 7 c 0
 617 5 615 3 614 2 c 0
 611 0 603 0 335 0 c 2
 60 0 l 2
EndSplineSet
EndChar

StartChar: Pi
Encoding: 928 928 61
Width: 831
GlyphClass: 2
Flags: MW
HStem: 0 46<312 327 312 312 701 716 701 701> 634 46<203 228 197 541 388 388 388 533>
LayerCount: 2
Fore
SplineSet
48 1 m 0
 35 1 31 2 31 10 c 0
 31 12 32 16 34 24 c 0
 40 45 39 46 59 46 c 2
 65 46 l 2
 88 46 114 48 125 49 c 0
 135 51 140 54 144 61 c 0
 147 68 285 616 285 622 c 0
 285 626 284 629 281 629 c 0
 276 631 255 633 228 634 c 2
 197 634 l 1
 190 641 188 639 193 661 c 0
 197 675 197 674 203 680 c 1
 541 680 l 2
 870 680 880 680 883 678 c 0
 886 676 887 674 887 670 c 0
 887 667 887 663 885 656 c 0
 879 635 880 634 860 634 c 2
 854 634 l 2
 831 634 805 632 794 631 c 0
 784 629 779 626 775 619 c 0
 772 612 634 64 634 58 c 0
 634 54 635 51 638 51 c 0
 643 49 664 47 692 46 c 2
 723 46 l 1
 729 38 731 40 726 19 c 0
 722 5 722 6 716 0 c 1
 701 0 l 2
 664 2 615 2 567 2 c 0
 519 2 478 1 437 1 c 0
 424 1 420 3 420 9 c 0
 420 12 422 17 423 24 c 0
 429 45 428 46 448 46 c 2
 454 46 l 2
 477 46 503 48 514 49 c 0
 524 51 529 54 533 61 c 0
 541 76 675 629 678 632 c 0
 678 634 671 634 533 634 c 2
 388 634 l 1
 378 596 245 63 245 59 c 0
 245 54 246 52 248 51 c 0
 252 49 273 47 303 46 c 2
 334 46 l 1
 340 38 342 40 337 19 c 0
 333 5 333 6 327 0 c 1
 312 0 l 2
 275 2 226 2 178 2 c 0
 130 2 89 1 48 1 c 0
EndSplineSet
EndChar

StartChar: Sigma
Encoding: 931 931 62
Width: 780
GlyphClass: 2
Flags: MW
HStem: 0 56<232.5 299 232.5 348> 637 46
VStem: 680 46 739 67
LayerCount: 2
Fore
SplineSet
739 455 m 0
 739 475 743 499 743 516 c 0
 743 542 740 562 734 578 c 0
 716 616 689 626 638 632 c 0
 608 636 599 636 469 637 c 2
 339 637 l 2
 340 635 478 345 478 341 c 0
 478 340 477 338 477 336 c 0
 476 335 406 272 322 196 c 2
 168 57 l 2
 167 56 207 56 258 56 c 0
 340 56 451 57 462 58 c 0
 526 63 564 73 590 93 c 0
 632 126 655 165 680 225 c 0
 688 249 689 250 702 250 c 2
 705 250 l 2
 718 250 726 249 726 239 c 0
 726 238 641 9 639 5 c 0
 636 0 654 0 348 0 c 2
 65 0 l 2
 62 3 58 6 58 11 c 0
 58 15 59 16 63 20 c 0
 65 23 137 87 222 164 c 2
 377 304 l 2
 380 307 224 627 218 644 c 0
 217 648 217 648 219 660 c 0
 223 675 225 679 228 681 c 0
 231 683 239 683 515 683 c 2
 799 683 l 2
 802 680 804 677 806 674 c 0
 806 666 780 451 778 448 c 0
 775 444 772 443 759 443 c 0
 743 443 739 445 739 455 c 0
EndSplineSet
EndChar

StartChar: Upsilon
Encoding: 933 933 63
Width: 583
GlyphClass: 2
Flags: MW
HStem: 0 46<381 398 381 381> 621 84<171 205.5>
VStem: 28 46 190 100<58 62.5> 281 61<472 473 472 505> 650 50<558 623.5>
LayerCount: 2
Fore
SplineSet
45 535 m 2xec
 31 535 28 535 28 544 c 0
 28 553 43 590 54 609 c 0
 84 658 136 705 206 705 c 0
 236 705 267 696 284 681 c 0
 324 650 344 595 344 514 c 0
 344 503 343 475 342 473 c 2
 342 472 l 2xec
 344 472 357 503 380 547 c 0
 422 620 475 671 528 692 c 0
 553 701 570 704 596 704 c 0
 613 704 615 704 625 702 c 0
 668 690 700 652 700 595 c 0
 700 574 697 549 693 543 c 0
 688 536 686 536 670 535 c 0
 652 535 649 537 649 544 c 0
 649 548 650 554 650 562 c 0
 650 601 613 621 575 621 c 0
 534 621 498 600 474 576 c 0
 423 527 387 446 365 361 c 0
 357 330 290 62 290 60 c 0
 290 56 292 53 296 52 c 0
 304 48 339 46 379 46 c 2
 404 46 l 1
 411 39 413 40 408 19 c 0
 403 3 404 6 398 0 c 1
 381 0 l 2
 340 2 282 2 225 2 c 0
 168 2 118 1 69 1 c 0
 54 1 52 2 52 10 c 0
 52 18 56 37 58 40 c 0
 60 46 62 46 89 46 c 0
 129 46 163 48 175 52 c 0
 180 53 186 57 190 62 c 0xf4
 190 63 267 355 274 404 c 0
 280 439 281 453 281 486 c 0
 281 524 280 541 270 564 c 0
 255 601 226 621 185 621 c 0
 135 621 87 591 74 550 c 0
 70 536 65 535 51 535 c 2
 45 535 l 2xec
EndSplineSet
EndChar

StartChar: Phi
Encoding: 934 934 64
Width: 667
GlyphClass: 2
Flags: MW
HStem: 0 46<401 418 401 401> 495 38<321.5 335 324 335> 637 46<249 264 249 267 243 264 571 578>
VStem: 24 106<307 311.5 273 315> 356 72 536 106<369.5 418.5 363.5 427.5>
LayerCount: 2
Fore
SplineSet
356 624 m 0
 356 637 316 637 267 637 c 2
 243 637 l 1
 235 643 234 644 239 664 c 0
 243 678 243 677 249 683 c 1
 264 683 l 2
 303 682 370 681 429 681 c 2
 490 681 l 2
 525 681 561 681 571 683 c 2
 583 683 l 1
 590 676 592 676 587 656 c 0
 583 643 583 642 578 637 c 1
 540 637 l 2
 486 636 468 634 459 628 c 0
 450 623 450 621 438 576 c 0
 433 553 428 534 428 533 c 1
 429 533 434 532 440 531 c 0
 536 520 642 464 642 373 c 0
 642 354 637 333 627 313 c 0
 593 242 498 181 386 158 c 1
 336 150 l 2
 332 150 332 150 331 146 c 0
 326 127 310 62 310 60 c 0
 310 56 312 53 316 52 c 0
 324 48 358 46 399 46 c 2
 424 46 l 1
 431 39 433 40 428 19 c 0
 423 3 424 6 418 0 c 1
 401 0 l 2
 360 2 303 2 247 2 c 0
 192 2 143 1 95 1 c 0
 81 1 78 2 78 10 c 0
 78 18 82 37 84 40 c 0
 86 46 88 46 115 46 c 0
 155 46 189 48 201 52 c 0
 206 53 212 57 216 62 c 0
 217 65 221 78 228 107 c 2
 239 150 l 1
 223 152 l 2
 195 156 169 162 147 170 c 0
 79 196 35 239 26 290 c 0
 25 296 24 303 24 311 c 0
 24 319 25 327 26 333 c 0
 45 442 195 516 318 531 c 0
 327 532 335 533 335 533 c 1
 346 578 l 2
 353 607 356 619 356 624 c 0
287 342 m 2
 325 495 l 1
 324 495 l 2
 319 495 296 492 282 488 c 0
 231 475 191 449 168 414 c 0
 144 378 130 332 130 291 c 0
 130 255 140 233 166 215 c 0
 185 202 212 192 241 188 c 1
 249 188 l 2
 249 189 266 258 287 342 c 2
418 496 m 1
 341 187 l 1
 351 189 l 2
 410 197 459 221 487 255 c 0
 517 291 536 346 536 393 c 0
 536 462 485 485 418 496 c 1
EndSplineSet
EndChar

StartChar: Psi
Encoding: 936 936 65
Width: 612
GlyphClass: 2
Flags: MW
HStem: 0 46<378 395 378 378> 151 39 509 37<668.5 676 676 680> 637 46<226 241 226 244 220 241 549 555>
VStem: 48 90<314 327.5 314 346> 65 94<455.5 465 465 472> 193 94<62 62.5>
LayerCount: 2
Fore
SplineSet
216 151 m 0xfa
 116 166 48 219 48 329 c 0xfa
 48 363 51 381 59 417 c 0
 63 432 65 446 65 458 c 0
 65 486 57 506 35 509 c 0
 26 510 21 513 21 520 c 0
 21 532 27 541 32 546 c 1
 72 546 l 2
 96 546 114 546 118 545 c 0
 147 539 159 514 159 476 c 2
 159 465 l 2xf6
 159 446 157 432 149 402 c 0
 141 367 138 341 138 314 c 0
 140 258 159 220 197 201 c 0
 206 196 225 189 226 190 c 0
 226 191 251 288 280 407 c 0
 321 571 333 620 333 625 c 0
 333 630 328 632 318 634 c 0
 305 635 272 637 244 637 c 2
 220 637 l 1
 212 643 211 644 216 664 c 0
 220 678 220 677 226 683 c 1
 241 683 l 2
 281 682 346 681 405 681 c 2
 467 681 l 2
 503 681 539 681 549 683 c 2
 560 683 l 1
 567 676 569 676 564 656 c 0
 560 643 560 642 555 637 c 1
 517 637 l 2
 464 636 445 634 436 628 c 0
 427 622 431 638 373 404 c 2
 320 192 l 2
 321 192 327 194 333 196 c 0
 366 206 393 223 419 248 c 0
 458 288 484 337 503 410 c 0
 509 433 512 442 518 457 c 0
 537 508 564 538 597 545 c 0
 602 546 613 546 644 546 c 2
 676 546 l 2
 687 546 688 545 691 539 c 0
 691 538 692 537 692 536 c 0
 692 534 691 531 690 525 c 0
 686 512 684 509 676 509 c 0
 661 509 644 499 631 483 c 0
 614 463 604 440 593 399 c 0
 561 279 480 189 359 159 c 0
 346 156 319 151 314 151 c 0
 313 151 311 151 310 150 c 0
 309 149 287 65 287 60 c 0
 287 56 289 53 293 52 c 0
 301 48 336 46 376 46 c 2
 401 46 l 1
 408 39 410 40 405 19 c 0
 400 3 401 6 395 0 c 1
 378 0 l 2
 337 2 280 2 224 2 c 0
 169 2 120 1 72 1 c 0
 58 1 55 2 55 10 c 0
 55 18 59 37 61 40 c 0
 63 46 65 46 92 46 c 0
 132 46 166 48 178 52 c 0
 183 53 189 57 193 62 c 0
 193 63 216 147 216 151 c 0xfa
EndSplineSet
EndChar

StartChar: Omega
Encoding: 937 937 66
Width: 772
GlyphClass: 2
Flags: MW
HStem: 0 76<87 243 547 550> 668 36<506 564 504 574.5>
VStem: 82 43 162 108<327 402.5> 243 42<76 130 78 130> 677 41 677 109<495 536.5 480.5 569.5>
LayerCount: 2
Fore
SplineSet
677 525 m 0xe2
 677 614 619 668 530 668 c 0
 482 668 430 650 385 617 c 0
 321 570 283 495 271 400 c 0
 270 388 270 378 270 348 c 0xf2
 270 306 270 302 277 233 c 0
 282 182 285 145 285 115 c 0
 285 93 283 75 281 56 c 0
 279 40 273 10 271 6 c 0
 268 0 273 0 175 0 c 2
 87 0 l 1
 83 3 l 1
 80 7 l 1
 80 18 l 2
 80 24 81 60 82 98 c 0
 85 172 84 169 91 172 c 0
 94 174 115 173 119 172 c 0
 124 169 124 168 124 126 c 0
 125 104 125 85 125 84 c 0
 126 81 128 80 139 78 c 0
 142 77 167 77 194 76 c 2
 243 76 l 1
 243 78 l 2xe8
 243 83 241 102 239 114 c 0
 234 143 225 171 202 232 c 0
 179 292 171 318 165 350 c 0
 163 362 163 369 162 389 c 0
 162 416 163 426 167 447 c 0
 179 510 224 572 272 610 c 0
 311 642 361 670 410 685 c 0
 444 696 483 704 525 704 c 0
 603 704 649 691 698 661 c 0
 751 626 786 569 786 504 c 0xf2
 786 457 767 403 730 347 c 0
 709 314 687 288 630 223 c 0
 579 165 558 139 537 109 c 0
 529 97 518 78 518 77 c 2
 518 77 537 76 557 76 c 0
 577 76 599 77 605 77 c 0
 630 79 633 80 640 92 c 0
 646 100 665 137 676 161 c 0
 679 168 681 171 683 172 c 0
 687 174 708 174 712 172 c 0
 715 170 718 165 718 162 c 0xe4
 718 161 645 4 642 2 c 0
 639 0 634 0 550 0 c 2
 461 0 l 1
 453 6 452 8 458 28 c 0
 466 56 478 85 495 119 c 0
 509 149 522 172 560 234 c 0
 602 304 610 320 626 351 c 0
 652 400 677 465 677 525 c 0xe2
EndSplineSet
EndChar

StartChar: alpha
Encoding: 945 945 67
Width: 640
GlyphClass: 2
Flags: MW
HStem: -11 37<180 216.5 180 258.5> 405 37<305 350>
VStem: 34 87<91.5 163.5> 401 84 560 43
LayerCount: 2
Fore
SplineSet
582 393 m 0
 597 393 603 393 603 385 c 0
 603 383 602 379 599 369 c 0
 580 296 543 222 497 161 c 2
 486 147 l 1
 487 123 l 2
 489 68 495 37 505 28 c 0
 508 26 509 26 514 26 c 0
 532 28 550 42 557 60 c 0
 560 69 561 70 577 70 c 0
 591 70 597 68 597 61 c 0
 597 57 595 51 591 43 c 0
 578 17 549 -10 512 -10 c 2
 505 -10 l 2
 453 -10 427 22 414 62 c 0
 413 65 411 69 411 69 c 2
 411 70 314 -11 203 -11 c 0
 105 -11 48 51 35 134 c 0
 34 140 34 148 34 156 c 0
 34 171 35 187 37 198 c 0
 57 316 164 428 287 441 c 0
 293 441 301 442 309 442 c 0
 399 442 457 388 478 304 c 0
 482 284 484 270 485 237 c 2
 485 208 l 1
 516 255 543 314 560 374 c 0
 565 393 565 393 582 393 c 0
121 120 m 0
 121 63 152 26 208 26 c 0
 225 26 246 29 266 34 c 0
 302 43 339 61 375 88 c 0
 389 98 404 111 403 112 c 0
 403 113 402 144 401 182 c 0
 399 302 396 405 304 405 c 0
 261 405 215 377 183 332 c 0
 166 307 153 277 141 231 c 0
 127 180 121 147 121 120 c 0
EndSplineSet
EndChar

StartChar: beta
Encoding: 946 946 68
Width: 566
GlyphClass: 2
Flags: MW
HStem: -194 21G<29 29 29 42> -10 36<226.5 263.5> 358 73<325 356.5> 667 38<427 446.5>
VStem: 23 39<-188 -183.5> 457 76<273 279 279 280 179.5 301> 503 70<587 597.5>
LayerCount: 2
Fore
SplineSet
29 -194 m 2xfc
 27 -192 23 -188 23 -186 c 0
 23 -181 181 448 186 465 c 0
 203 518 229 569 261 609 c 0
 272 623 295 648 309 658 c 0
 340 684 375 699 410 704 c 0
 415 704 423 705 431 705 c 0
 514 705 573 651 573 570 c 0xfa
 573 504 532 438 469 396 c 1
 482 383 l 2
 512 353 533 308 533 252 c 0
 533 107 414 11 294 -8 c 0
 284 -10 270 -10 257 -10 c 0
 149 -10 130 69 126 65 c 2
 62 -188 l 2
 60 -193 57 -194 42 -194 c 2
 29 -194 l 2xfc
353 431 m 0
 385 431 403 427 427 419 c 1
 433 424 l 2
 471 452 492 502 501 560 c 0
 503 569 503 581 503 593 c 0xfa
 503 602 503 611 502 616 c 0
 493 648 467 667 426 667 c 0
 414 667 401 666 390 663 c 0
 321 644 259 565 224 455 c 0
 218 435 154 181 152 168 c 0
 151 163 151 155 151 147 c 0
 151 72 193 26 260 26 c 0
 387 26 451 145 457 273 c 1
 457 279 l 2xfc
 457 323 445 349 422 372 c 1
 395 363 376 358 337 358 c 0
 302 358 258 361 258 389 c 0
 258 393 259 398 261 403 c 0
 271 423 297 431 353 431 c 0
EndSplineSet
EndChar

StartChar: gamma
Encoding: 947 947 69
Width: 518
GlyphClass: 2
Flags: MW
HStem: 355 86<194 206 206 212 194 258.5>
VStem: 348 37<95 178>
LayerCount: 2
Fore
SplineSet
348 100 m 0
 348 228 321 355 196 355 c 0
 132 355 72 317 51 260 c 0
 50 255 48 251 47 251 c 0
 45 249 38 249 31 249 c 0
 20 249 11 249 11 258 c 0
 11 262 13 268 16 278 c 0
 45 364 117 430 194 441 c 1
 206 441 l 2
 218 441 233 441 239 440 c 0
 303 425 341 373 371 255 c 0
 378 225 385 186 385 170 c 0
 385 168 385 166 386 166 c 2
 398 193 l 2
 426 265 450 318 486 390 c 0
 502 420 506 428 508 430 c 0
 510 431 515 431 524 431 c 2
 537 431 l 2
 539 429 543 425 543 422 c 0
 543 420 536 406 525 383 c 0
 470 275 426 172 391 71 c 0
 385 55 384 49 383 41 c 0
 378 -4 370 -49 357 -100 c 0
 338 -178 327 -206 312 -213 c 0
 309 -215 306 -216 303 -216 c 0
 290 -216 286 -205 286 -188 c 0
 286 -183 286 -178 287 -172 c 0
 292 -137 317 -42 340 32 c 2
 346 51 l 1
 347 69 l 2
 348 79 348 90 348 100 c 0
EndSplineSet
EndChar

StartChar: delta
Encoding: 948 948 70
Width: 444
GlyphClass: 2
Flags: MW
HStem: -10 37<180.5 198 198 205> 612 78 671 46<277 302>
VStem: 36 76<100 163.5> 195 40<612.5 632.5 612.5 637.5> 316 85<253.5 268>
LayerCount: 2
Fore
SplineSet
451 662 m 0xdc
 451 639 433 612 403 612 c 0xdc
 395 612 392 612 388 614 c 0
 377 618 366 626 353 637 c 0
 323 662 315 666 300 670 c 0
 296 671 292 671 288 671 c 0
 266 671 253 664 243 650 c 0
 237 642 235 637 235 628 c 0
 235 597 265 547 334 463 c 0
 374 413 401 372 401 292 c 0
 401 215 384 161 358 110 c 0
 335 66 302 26 261 4 c 0
 240 -6 227 -10 205 -10 c 2
 198 -10 l 2
 163 -10 145 -4 122 8 c 0
 73 32 38 84 36 153 c 0
 36 174 37 186 41 206 c 0
 54 276 100 340 151 382 c 0
 182 406 217 422 252 434 c 1
 249 442 245 448 239 462 c 0
 214 515 200 558 196 593 c 0
 195 598 195 603 195 609 c 0
 195 666 232 702 279 715 c 0
 287 717 290 717 302 717 c 0xbc
 326 715 418 695 433 690 c 0
 444 685 451 675 451 662 c 0xdc
112 130 m 0
 112 70 143 27 204 27 c 0
 230 27 238 34 252 48 c 0
 285 81 316 159 316 232 c 0
 316 304 297 340 269 400 c 1
 259 396 l 2
 193 373 153 314 132 239 c 0
 119 195 112 157 112 130 c 0
EndSplineSet
EndChar

StartChar: epsilon
Encoding: 949 949 71
Width: 466
GlyphClass: 2
Flags: MW
HStem: -22 61<170 233.5> 206 72<219 241> 392 60<275 290 290 301.5>
VStem: 27 41<82.5 121.5> 76 40<301 315.5>
LayerCount: 2
Fore
SplineSet
68 112 m 0
 68 53 131 39 201 39 c 0
 278 39 324 56 348 99 c 0
 350 103 356 105 362 105 c 0
 371 104 376 98 376 88 c 0
 376 83 376 81 372 73 c 0
 343 15 277 -22 190 -22 c 0
 150 -22 125 -16 99 -2 c 0
 59 16 27 53 27 107 c 0
 27 136 38 165 59 194 c 0
 68 206 85 222 97 232 c 2
 107 239 l 1
 99 248 l 2
 84 264 76 283 76 304 c 0
 76 327 85 349 97 364 c 0
 132 411 200 445 275 452 c 1
 290 452 l 2
 345 452 371 444 405 421 c 0
 420 411 428 406 428 392 c 0
 428 373 407 356 391 356 c 0
 382 356 376 360 369 365 c 0
 342 385 320 392 283 392 c 0
 231 392 180 380 149 359 c 0
 128 346 116 329 116 308 c 0
 116 294 121 284 133 272 c 0
 145 260 145 260 157 264 c 0
 181 275 200 278 238 278 c 0
 276 278 308 277 308 247 c 0
 308 235 300 221 287 215 c 0
 272 207 259 206 223 206 c 0
 184 206 168 209 142 219 c 1
 132 212 l 2
 92 185 68 148 68 112 c 0
EndSplineSet
EndChar

StartChar: zeta
Encoding: 950 950 72
Width: 438
GlyphClass: 2
Flags: MW
HStem: -204 36<264.5 282> 546 66<340 386> 684 20G<312 330>
VStem: 44 70<157.5 175.5> 296 40<632.5 640 628.5 643> 322 67<-131 -75>
LayerCount: 2
Fore
SplineSet
296 643 m 0xf8
 297 675 300 704 324 704 c 0
 336 704 342 698 342 688 c 0
 342 685 342 682 341 679 c 0
 338 664 336 647 336 633 c 0xf8
 336 624 338 617 338 611 c 1
 338 611 339 612 341 612 c 0
 342 613 348 614 354 616 c 0
 362 618 367 618 384 619 c 2
 391 619 l 2
 430 619 471 618 471 586 c 0
 470 577 467 570 460 564 c 0
 447 552 428 547 386 546 c 0
 347 546 337 547 320 564 c 1
 311 558 l 2
 237 508 162 401 132 299 c 0
 120 261 114 222 114 190 c 0
 114 125 140 85 188 63 c 0
 192 61 223 50 256 39 c 2
 322 16 l 2
 355 3 375 -19 386 -52 c 0
 388 -60 389 -70 389 -80 c 0
 389 -105 383 -119 374 -138 c 0
 357 -170 332 -192 300 -202 c 0
 292 -204 290 -204 274 -204 c 0
 254 -204 244 -203 225 -196 c 0
 205 -190 176 -174 172 -167 c 0
 169 -162 170 -154 173 -148 c 0
 177 -143 184 -139 191 -139 c 0
 196 -139 198 -140 202 -142 c 0
 232 -161 246 -168 283 -168 c 0
 301 -166 322 -145 322 -117 c 0xf4
 322 -90 305 -74 285 -64 c 0
 273 -56 176 -30 139 -10 c 0
 79 19 44 74 44 160 c 0
 44 191 48 226 58 265 c 0
 89 392 197 533 293 590 c 2
 302 595 l 1
 297 609 296 622 296 643 c 0xf8
EndSplineSet
EndChar

StartChar: eta
Encoding: 951 951 73
Width: 497
GlyphClass: 2
Flags: MW
HStem: 405 37<124.5 138>
VStem: 74 77<17 17> 154 77<368.5 370.5 368.5 377.5> 299 78 423 80<338.5 364>
LayerCount: 2
Fore
SplineSet
108 -11 m 0
 91 -11 74 -1 74 17 c 0
 74 45 154 331 154 366 c 0
 154 389 148 405 128 405 c 0
 121 405 115 403 109 398 c 0
 91 384 79 356 61 287 c 0
 57 278 60 278 41 278 c 2
 27 278 l 2
 25 280 21 284 21 287 c 0
 21 290 28 316 34 334 c 0
 47 374 61 400 79 418 c 0
 95 434 107 442 132 442 c 0
 174 442 205 424 220 397 c 0
 224 390 231 372 231 369 c 0
 231 368 231 367 232 367 c 2
 243 378 l 2
 278 414 318 442 382 442 c 0
 453 442 503 407 503 336 c 0
 503 323 502 308 500 298 c 0
 499 292 472 181 439 53 c 0
 391 -140 380 -183 377 -189 c 0
 369 -205 351 -216 332 -216 c 0
 313 -216 300 -203 299 -186 c 0
 299 -180 303 -161 358 57 c 2
 420 307 l 2
 422 317 423 332 423 345 c 0
 423 383 411 404 374 404 c 0
 362 404 356 404 348 402 c 0
 301 392 263 361 229 303 c 2
 222 291 l 1
 189 157 l 2
 161 46 154 22 151 16 c 0
 143 -1 125 -11 108 -11 c 0
EndSplineSet
EndChar

StartChar: theta
Encoding: 952 952 74
Width: 469
GlyphClass: 2
Flags: MW
HStem: -10 36<159 161 161 168> 324 47<157 157 157 340 145 157> 668 37<335 339 335 349>
VStem: 35 78<110 218> 383 79<486.5 595>
LayerCount: 2
Fore
SplineSet
319 704 m 0
 322 704 331 705 339 705 c 0
 380 701 402 687 423 656 c 0
 448 618 462 563 462 495 c 0
 462 478 461 460 460 452 c 0
 452 367 427 277 391 203 c 0
 345 108 281 33 222 4 c 0
 200 -6 187 -10 168 -10 c 2
 161 -10 l 2
 127 -10 106 2 88 21 c 0
 52 59 35 124 35 200 c 0
 35 236 38 264 45 301 c 0
 69 432 122 546 196 628 c 0
 235 671 278 698 319 704 c 0
383 566 m 0
 383 624 368 668 330 668 c 0
 308 668 285 653 262 625 c 0
 228 582 201 525 177 445 c 0
 171 426 157 372 157 371 c 2
 157 371 206 370 254 370 c 0
 302 370 351 371 351 371 c 2
 352 372 366 432 369 449 c 0
 378 496 383 534 383 566 c 0
335 307 m 2
 340 324 l 1
 145 324 l 1
 144 317 l 1
 124 237 113 176 113 132 c 0
 113 88 123 53 137 38 c 0
 144 30 152 26 166 26 c 0
 192 26 221 48 250 91 c 0
 284 141 308 203 335 307 c 2
EndSplineSet
EndChar

StartChar: iota
Encoding: 953 953 75
Width: 354
GlyphClass: 2
Flags: MW
HStem: -10 37<122 147 141 145> 422 20G<180 200.5>
VStem: 48 78<62.5 65.5 44 80.5> 147 78 290 42
LayerCount: 2
Fore
SplineSet
313 153 m 0
 329 153 332 154 332 143 c 0
 332 133 319 103 308 86 c 0
 287 53 256 26 221 9 c 0
 194 -4 171 -10 145 -10 c 2
 139 -10 l 2
 105 -10 90 -2 72 14 c 0
 59 28 48 51 48 74 c 0
 48 87 52 101 58 118 c 0
 83 182 107 264 135 375 c 0
 141 397 145 411 147 415 c 0
 154 429 170 442 190 442 c 0
 211 442 225 429 225 410 c 0
 225 404 223 396 216 369 c 0
 187 255 167 186 137 107 c 0
 130 87 126 77 126 54 c 0
 126 34 127 27 141 27 c 2
 147 27 l 2
 184 27 224 46 255 78 c 0
 271 96 283 115 290 136 c 0
 296 153 295 153 313 153 c 0
EndSplineSet
EndChar

StartChar: kappa
Encoding: 954 954 76
Width: 576
GlyphClass: 2
Flags: MW
HStem: -10 36<426.5 442 426.5 447> 222 35 327 104<455.5 467.5> 422 20G<181.5 193>
VStem: 49 77<17 17> 333 78<59.5 74.5 53.5 99> 339 83<145 154 145 178.5>
LayerCount: 2
Fore
SplineSet
339 146 m 0xea
 339 211 221 222 187 222 c 0
 183 222 180 221 180 221 c 1
 155 122 l 2
 134 41 129 22 126 16 c 0
 118 -1 100 -11 83 -11 c 0
 66 -11 49 -1 49 17 c 0
 49 36 143 405 147 414 c 0
 154 430 170 442 193 442 c 0xda
 210 441 225 430 225 412 c 0
 225 403 221 386 208 337 c 2
 192 270 l 2
 193 268 222 284 235 292 c 0
 281 325 341 382 386 406 c 0
 415 422 444 431 467 431 c 0
 494 431 512 417 512 391 c 0
 512 359 486 327 449 327 c 0
 424 327 405 344 405 368 c 0
 405 372 406 376 407 380 c 2
 397 375 l 2
 376 364 354 348 315 315 c 2
 253 266 l 1
 240 257 l 1
 245 257 l 2
 247 257 257 256 267 255 c 0
 340 247 402 229 419 173 c 0
 421 166 422 158 422 150 c 0xea
 422 140 420 129 417 117 c 0
 413 97 411 82 411 67 c 0
 411 40 416 26 437 26 c 0
 447 26 459 31 469 40 c 0
 486 57 500 87 513 137 c 0
 517 153 517 153 535 153 c 0
 550 153 554 153 554 144 c 0
 554 141 553 138 552 133 c 0
 538 81 518 41 494 17 c 0
 477 0 463 -10 431 -10 c 0
 370 -10 333 29 333 90 c 0xec
 333 108 339 130 339 146 c 0xea
EndSplineSet
EndChar

StartChar: lambda
Encoding: 955 955 77
Width: 583
GlyphClass: 2
Flags: MW
HStem: 657 37<183 193.5>
LayerCount: 2
Fore
SplineSet
166 674 m 0
 166 684 174 690 183 694 c 1
 202 694 l 2
 262 692 300 675 316 644 c 0
 318 639 522 72 524 67 c 0
 537 29 543 16 552 6 c 0
 555 3 556 0 556 -2 c 0
 556 -6 552 -9 550 -11 c 2
 482 -11 l 1
 469 -4 455 6 448 20 c 0
 446 23 424 83 399 152 c 2
 354 277 l 2
 354 278 301 216 236 141 c 0
 171 66 116 2 113 0 c 0
 106 -7 97 -12 83 -12 c 0
 61 -12 47 -1 47 20 c 0
 47 30 49 37 55 46 c 0
 66 61 338 321 338 322 c 0
 338 324 237 604 234 612 c 0
 221 642 204 657 183 657 c 0
 172 657 166 665 166 674 c 0
EndSplineSet
EndChar

StartChar: mu
Encoding: 956 956 78
Width: 603
GlyphClass: 2
Flags: MW
HStem: -11 37<228 257.5 228 283.5> 422 20G<207.5 219>
VStem: 374 74<50.5 70.5> 448 77
LayerCount: 2
Fore
SplineSet
491 431 m 0
 509 431 525 421 525 402 c 0
 525 388 449 84 449 84 c 2
 448 79 448 73 448 68 c 0
 448 44 453 26 476 26 c 0
 484 27 489 30 496 35 c 0
 512 50 523 77 537 131 c 0
 543 152 542 153 557 153 c 2
 561 153 l 2
 576 153 580 153 580 144 c 0
 580 141 579 137 577 129 c 0
 562 71 545 35 523 13 c 0
 512 2 503 -3 491 -8 c 0
 483 -10 482 -10 467 -10 c 0
 425 -10 394 10 379 39 c 0
 376 45 374 50 374 51 c 0
 374 53 321 -11 246 -11 c 0
 209 -11 178 -2 153 12 c 1
 129 -85 l 2
 102 -193 103 -191 92 -202 c 0
 82 -211 70 -216 58 -216 c 0
 39 -216 24 -204 23 -186 c 0
 23 -172 169 407 173 414 c 0
 180 430 196 442 219 442 c 0
 235 441 251 431 251 413 c 0
 251 390 192 177 187 142 c 0
 185 131 185 125 185 107 c 0
 185 55 204 26 252 26 c 0
 263 26 275 28 287 32 c 0
 316 43 344 67 367 103 c 2
 372 110 l 1
 408 253 l 2
 438 373 445 398 448 404 c 0
 456 421 474 431 491 431 c 0
EndSplineSet
EndChar

StartChar: nu
Encoding: 957 957 79
Width: 494
GlyphClass: 2
Flags: MW
HStem: 385 46<73 75 73 86 65 75> 422 20G<218 221.5 481.5 504.5>
LayerCount: 2
Fore
SplineSet
74 431 m 0x80
 76 431 217 442 219 442 c 0
 224 442 231 440 231 434 c 0
 231 429 225 404 185 241 c 2
 137 51 l 1
 140 51 l 2
 141 52 148 54 155 57 c 0
 290 110 406 250 445 394 c 0
 453 423 467 442 496 442 c 0x40
 513 442 530 430 530 411 c 0
 530 404 528 395 525 383 c 0
 473 209 310 54 106 5 c 0
 88 0 79 -2 71 -2 c 0
 66 -2 54 1 51 1 c 0
 48 3 45 7 45 11 c 0
 45 14 132 363 132 364 c 0
 135 387 115 384 86 385 c 2
 65 385 l 1
 58 392 56 390 61 412 c 0
 64 424 65 426 68 428 c 0
 70 430 72 431 74 431 c 0x80
EndSplineSet
EndChar

StartChar: xi
Encoding: 958 958 80
Width: 438
GlyphClass: 2
Flags: MW
HStem: -205 65 275 72<281.5 305> 546 70<309 358> 684 20G<282.5 302>
VStem: 21 67<96.5 137> 99 96<396 437.5> 268 41<616 647.5> 313 70<-137 -76>
LayerCount: 2
Fore
SplineSet
273 -205 m 0
 240 -205 156 -185 156 -159 c 0
 156 -147 165 -140 176 -140 c 0
 180 -140 185 -141 189 -143 c 0
 216 -158 237 -164 263 -167 c 0
 278 -169 286 -168 292 -165 c 0
 303 -160 313 -145 313 -129 c 0
 313 -117 307 -106 295 -100 c 0
 291 -96 110 -27 107 -25 c 0
 64 -5 35 28 24 68 c 0
 22 76 21 90 21 103 c 0
 21 110 21 116 22 121 c 0
 28 156 48 198 73 232 c 0
 93 259 119 283 145 301 c 2
 154 307 l 1
 151 310 l 2
 149 311 143 317 137 322 c 0
 113 346 99 379 99 413 c 0
 99 496 168 570 259 602 c 1
 271 607 l 1
 269 615 268 620 268 632 c 0
 268 663 269 704 296 704 c 0
 308 704 314 698 314 688 c 0
 314 685 314 682 313 679 c 0
 310 665 308 648 308 635 c 0
 308 629 308 624 309 620 c 2
 309 616 l 1
 315 616 l 2
 333 618 341 619 360 619 c 0
 411 619 432 613 440 598 c 0
 443 593 443 592 443 586 c 0
 442 577 439 570 432 564 c 0
 419 552 400 547 358 546 c 0
 316 546 310 550 290 566 c 1
 240 541 195 470 195 405 c 0
 195 384 198 368 205 353 c 0
 210 344 216 336 218 337 c 0
 240 341 265 347 298 347 c 0
 336 347 375 345 375 314 c 0
 373 278 330 275 280 275 c 0
 242 275 234 275 208 283 c 2
 195 286 l 1
 151 261 115 219 97 172 c 0
 90 153 88 144 88 130 c 0
 88 118 88 116 90 108 c 0
 98 87 119 66 144 54 c 0
 150 51 336 -22 342 -25 c 0
 368 -38 383 -58 383 -94 c 0
 383 -126 367 -154 350 -172 c 0
 328 -194 305 -205 273 -205 c 0
EndSplineSet
EndChar

StartChar: omicron
Encoding: 959 959 81
Width: 485
GlyphClass: 2
Flags: MW
HStem: -11 37<181 211.5 181 247> 405 36<287 301 301 308 287 334>
VStem: 34 87<91 163.5> 388 88<302 316.5 242.5 337.5>
LayerCount: 2
Fore
SplineSet
287 441 m 1
 301 441 l 2
 315 441 333 441 341 440 c 0
 423 425 476 365 476 268 c 0
 476 217 466 190 445 150 c 0
 395 53 293 -11 201 -11 c 0
 105 -11 48 51 35 134 c 0
 34 140 34 148 34 156 c 0
 34 171 35 187 37 198 c 0
 49 268 95 337 146 380 c 0
 188 413 240 436 287 441 c 1
121 120 m 0
 121 62 156 26 206 26 c 0
 217 26 230 28 242 32 c 0
 288 47 328 87 351 142 c 0
 363 172 379 232 387 277 c 0
 388 283 388 296 388 308 c 0
 388 367 362 405 306 405 c 0
 268 405 225 383 195 347 c 0
 171 318 156 286 141 231 c 0
 127 180 121 147 121 120 c 0
EndSplineSet
EndChar

StartChar: pi
Encoding: 960 960 82
Width: 570
GlyphClass: 2
Flags: MW
HStem: 358 73<337.5 367 269 431 408 408 408 431 337.5 472>
VStem: 367 26
LayerCount: 2
Fore
SplineSet
431 37 m 0
 431 15 410 -10 381 -10 c 0
 360 -10 356 -4 349 10 c 0
 336 40 330 73 330 121 c 0
 330 139 330 157 331 169 c 0
 336 217 345 266 362 336 c 0
 365 348 367 357 367 358 c 2
 269 358 l 1
 268 354 l 2
 268 350 193 47 175 17 c 0
 168 1 150 -11 132 -11 c 0
 119 -11 106 -5 100 6 c 0
 98 11 98 13 98 22 c 2
 98 33 l 1
 111 61 l 2
 161 166 195 249 220 334 c 2
 228 358 l 1
 196 358 l 2
 146 358 134 358 103 336 c 0
 90 328 70 308 61 295 c 0
 54 284 55 284 38 284 c 0
 25 284 19 285 19 294 c 0
 19 297 21 301 29 314 c 0
 60 361 106 420 164 429 c 0
 171 431 286 431 389 431 c 0
 473 431 549 431 553 430 c 0
 564 426 573 417 573 402 c 0
 573 383 559 366 541 360 c 0
 535 358 531 358 472 358 c 2
 408 358 l 1
 405 341 l 2
 398 299 393 258 393 222 c 0
 393 157 403 110 424 61 c 0
 429 48 431 44 431 37 c 0
EndSplineSet
EndChar

StartChar: rho
Encoding: 961 961 83
Width: 517
GlyphClass: 2
Flags: MW
HStem: -10 36<238 255 255 266> 405 37<355.5 365 355.5 379.5>
VStem: 424 86<298.5 320.5 218.5 346>
LayerCount: 2
Fore
SplineSet
58 -216 m 0
 38 -216 24 -204 23 -186 c 0
 23 -172 124 228 127 234 c 0
 137 268 161 313 182 341 c 0
 227 396 284 432 341 441 c 0
 346 441 352 442 359 442 c 0
 371 442 385 441 393 439 c 0
 462 423 510 365 510 276 c 0
 510 161 420 26 300 -5 c 0
 284 -9 277 -10 266 -10 c 2
 255 -10 l 2
 204 -10 184 12 160 41 c 1
 133 -71 l 2
 101 -195 103 -191 92 -202 c 0
 82 -211 70 -216 58 -216 c 0
424 322 m 0
 424 370 402 405 357 405 c 0
 311 405 259 362 231 300 c 0
 219 273 214 256 193 170 c 2
 176 102 l 1
 186 56 216 26 260 26 c 0
 286 26 311 39 334 62 c 0
 361 87 378 118 393 169 c 0
 404 210 424 275 424 322 c 0
EndSplineSet
EndChar

StartChar: sigma1
Encoding: 962 962 84
Width: 363
GlyphClass: 2
Flags: MW
HStem: -107 36<218.5 230.5> 374 51 405 37<292.5 310.5>
VStem: 31 67<203.5 251.5> 263 71<-42 19>
LayerCount: 2
Fore
SplineSet
224 -71 m 0xb8
 247 -71 263 -54 263 -30 c 0
 263 -16 257 -3 245 6 c 0
 241 8 107 84 103 86 c 0
 65 108 40 144 32 189 c 0
 31 193 31 200 31 207 c 0
 31 220 32 236 34 245 c 0
 56 348 154 420 257 438 c 0
 273 441 283 442 302 442 c 0xb8
 336 442 360 437 383 425 c 0
 399 417 405 410 405 400 c 0
 405 386 395 374 379 374 c 0xd8
 373 375 372 375 361 382 c 0
 340 397 325 405 296 405 c 0
 196 405 112 333 99 263 c 0
 98 259 98 254 98 249 c 0
 98 210 114 186 141 167 c 0
 144 164 294 80 299 78 c 0
 302 75 308 70 311 66 c 0
 326 50 334 30 334 8 c 0
 334 -48 292 -93 248 -105 c 0
 241 -107 237 -107 224 -107 c 0
 203 -107 156 -99 156 -80 c 0
 156 -69 167 -60 176 -60 c 0
 180 -60 185 -61 190 -63 c 0
 201 -67 213 -71 224 -71 c 0xb8
EndSplineSet
EndChar

StartChar: sigma
Encoding: 963 963 85
Width: 571
GlyphClass: 2
Flags: MW
HStem: -11 37<162 191> 358 73<416 476 416 416>
VStem: 31 75<102.5 126 89.5 164.5> 361 78<268.5 279.5 227 304.5>
LayerCount: 2
Fore
SplineSet
184 -11 m 0
 91 -11 31 58 31 147 c 0
 31 182 39 218 56 257 c 0
 90 331 150 390 220 417 c 0
 235 423 256 428 274 430 c 0
 275 431 338 431 414 431 c 2
 552 431 l 1
 564 424 572 419 572 401 c 0
 572 379 557 365 541 360 c 0
 535 358 531 358 476 358 c 2
 416 358 l 1
 421 348 l 2
 433 323 439 296 439 263 c 0
 439 191 409 121 354 66 c 0
 318 30 271 4 225 -6 c 0
 211 -9 198 -11 184 -11 c 0
361 278 m 0
 361 331 331 358 276 358 c 0
 231 358 199 341 174 315 c 0
 146 286 129 248 114 178 c 0
 109 155 106 135 106 117 c 0
 106 62 136 26 188 26 c 0
 222 26 259 44 287 73 c 0
 317 104 334 139 350 205 c 0
 357 235 361 259 361 278 c 0
EndSplineSet
EndChar

StartChar: tau
Encoding: 964 964 86
Width: 437
GlyphClass: 2
Flags: MW
HStem: 358 73<194.5 402 346.5 402 265 431.5>
VStem: 153 80<20 20> 254 45<356 357.5>
LayerCount: 2
Fore
SplineSet
39 284 m 0
 25 284 18 286 18 294 c 0
 18 295 19 295 19 297 c 0
 31 324 74 376 99 398 c 0
 120 414 142 426 164 429 c 0
 170 431 198 431 332 431 c 0
 472 431 492 431 497 429 c 0
 510 426 517 415 517 402 c 0
 517 385 502 364 485 360 c 0
 479 358 474 358 389 358 c 0
 304 358 299 358 299 356 c 0
 296 353 237 33 233 20 c 0
 226 0 205 -13 186 -13 c 0
 165 -13 153 -2 153 20 c 2
 153 30 l 1
 203 192 l 2
 231 282 253 356 254 357 c 0
 254 358 247 358 208 358 c 0
 181 358 159 358 154 357 c 0
 120 352 84 328 61 295 c 0
 54 284 53 284 39 284 c 0
EndSplineSet
EndChar

StartChar: upsilon
Encoding: 965 965 87
Width: 540
GlyphClass: 2
Flags: MW
HStem: -10 36<246.5 268 268 282> 404 37<148 154 154 159>
VStem: 21 40<287 287> 104 81<117.5 127> 173 77<368.5 381.5 355 388> 465 58
LayerCount: 2
Fore
SplineSet
413 384 m 0xf4
 413 415 444 443 473 443 c 0
 507 443 523 406 523 367 c 0
 523 341 517 306 504 255 c 0
 493 212 485 188 468 153 c 0
 428 71 374 15 317 -4 c 0
 303 -9 296 -10 282 -10 c 2
 268 -10 l 2
 178 -10 116 24 105 104 c 0
 104 108 104 114 104 121 c 0xf4
 104 133 105 148 107 156 c 0
 112 185 123 223 151 297 c 0
 172 353 173 358 173 379 c 0
 173 397 171 404 159 404 c 2
 154 404 l 2
 138 404 125 398 110 383 c 0
 89 362 72 329 61 287 c 0
 57 278 60 278 41 278 c 2
 27 278 l 2
 25 280 21 283 21 287 c 0
 21 290 22 294 24 301 c 0
 40 354 68 398 101 421 c 0
 117 433 135 441 161 441 c 0
 216 441 250 408 250 355 c 0xec
 249 346 249 338 247 334 c 0
 247 330 240 311 232 291 c 0
 196 194 185 154 185 118 c 0
 185 59 218 26 275 26 c 0
 290 26 304 29 317 34 c 0
 374 57 429 135 457 232 c 0
 463 252 465 263 465 277 c 0
 465 304 455 329 435 348 c 0
 421 360 420 362 417 368 c 0
 414 373 413 378 413 384 c 0xf4
EndSplineSet
EndChar

StartChar: phi
Encoding: 966 966 88
Width: 654
GlyphClass: 2
Flags: MW
HStem: -10 72<301 313> 369 73<481.5 512.5>
VStem: 50 42<139 210> 574 44<295 307>
LayerCount: 2
Fore
SplineSet
502 442 m 0
 579 442 618 382 618 302 c 0
 618 288 617 275 616 267 c 0
 605 200 573 139 523 88 c 0
 476 42 419 9 360 -4 c 0
 336 -9 327 -10 299 -10 c 0
 277 -10 273 -11 273 -12 c 0
 272 -13 248 -151 241 -179 c 0
 238 -194 229 -206 215 -212 c 0
 206 -217 199 -218 190 -218 c 0
 172 -216 159 -204 159 -185 c 0
 159 -174 194 -64 214 -2 c 0
 215 -1 214 0 205 2 c 0
 124 26 50 88 50 190 c 0
 50 207 52 221 55 238 c 0
 74 323 107 389 149 431 c 1
 162 431 l 2
 176 431 183 428 183 423 c 0
 183 420 180 415 175 409 c 0
 142 370 120 326 102 260 c 0
 94 234 93 226 92 210 c 0
 92 192 93 182 97 170 c 0
 108 135 138 105 181 87 c 0
 198 79 227 70 235 70 c 0
 236 70 237 71 237 71 c 1
 250 112 l 2
 273 185 285 217 300 253 c 0
 331 324 365 375 401 404 c 0
 430 428 461 442 502 442 c 0
574 278 m 0
 574 336 539 369 486 369 c 0
 421 369 360 312 323 218 c 0
 310 187 306 169 295 109 c 2
 286 64 l 1
 293 63 296 62 306 62 c 0
 377 62 421 79 470 110 c 0
 488 123 498 131 513 146 c 0
 544 177 564 213 572 250 c 0
 574 257 574 268 574 278 c 0
EndSplineSet
EndChar

StartChar: chi
Encoding: 967 967 89
Width: 626
GlyphClass: 2
Flags: MW
HStem: -204 36<450.5 499 482 487> -194 21G<38 44.5> 405 37<131.5 139>
VStem: 48 39 536 40
LayerCount: 2
Fore
SplineSet
68 351 m 0x78
 55 351 48 352 48 361 c 0
 48 366 51 372 56 383 c 0
 72 417 103 442 148 442 c 0
 198 442 237 426 258 400 c 0
 300 341 340 180 341 180 c 0
 347 180 561 423 573 429 c 0
 576 430 579 431 582 431 c 0
 592 431 600 425 600 414 c 0
 600 411 600 407 598 404 c 0
 594 396 355 137 353 134 c 2
 362 102 l 2
 388 5 406 -44 434 -101 c 0
 458 -149 474 -168 490 -168 c 0
 508 -168 528 -150 536 -126 c 0
 539 -117 539 -116 543 -115 c 0
 548 -114 567 -114 571 -115 c 0
 577 -118 578 -122 576 -130 c 0
 569 -156 544 -185 518 -196 c 0
 506 -202 500 -204 487 -204 c 2
 476 -204 l 2xb8
 425 -204 383 -187 363 -157 c 0
 337 -116 312 -38 293 26 c 2
 284 59 l 2
 281 55 61 -187 53 -191 c 0
 50 -193 46 -194 43 -194 c 0
 33 -194 25 -185 25 -177 c 0
 25 -174 26 -170 28 -167 c 0
 29 -164 75 -113 151 -30 c 2
 272 102 l 1
 265 131 l 2
 238 228 218 286 191 340 c 0
 173 375 161 392 149 400 c 0
 143 404 143 405 135 405 c 0
 128 405 126 404 121 402 c 0
 106 395 94 378 87 358 c 0
 86 352 81 351 68 351 c 0x78
EndSplineSet
EndChar

StartChar: psi
Encoding: 968 968 90
Width: 651
GlyphClass: 2
Flags: MW
HStem: -11 37<319 339.5 319 339.5> 404 37<148 154 154 159> 674 20G<466 479>
VStem: 21 40<287 287> 106 81 173 77<368.5 381 349.5 388> 233 39<-199 -196> 456 36 576 58
LayerCount: 2
Fore
SplineSet
161 441 m 0xf580
 216 441 250 404 250 358 c 0xf580
 250 341 248 333 232 291 c 0
 195 191 186 158 187 127 c 0
 189 98 197 78 214 61 c 0
 227 50 239 42 257 37 c 0
 266 33 284 29 288 29 c 2
 289 29 l 1
 371 360 l 2
 448 664 454 690 456 692 c 0
 459 694 460 694 472 694 c 0
 486 694 492 693 492 687 c 0
 492 681 483 642 411 356 c 0
 366 176 329 28 329 27 c 0
 329 26 331 26 335 26 c 0
 344 26 363 28 374 31 c 0
 462 57 543 149 569 236 c 0
 573 251 576 265 576 278 c 0
 576 306 566 329 546 348 c 0
 532 360 531 362 528 368 c 0
 525 373 524 378 524 384 c 0
 524 417 557 443 583 443 c 0
 619 443 634 405 634 366 c 0
 634 349 631 328 626 303 c 0
 621 280 610 233 605 220 c 0
 587 167 555 118 513 76 c 0
 457 21 389 -11 329 -11 c 2
 319 -11 l 1
 296 -104 l 2
 283 -155 272 -198 272 -199 c 0
 270 -204 267 -205 252 -205 c 2
 239 -205 l 2
 237 -203 233 -199 233 -197 c 0
 233 -195 243 -153 256 -102 c 0
 269 -51 279 -10 279 -9 c 2
 279 -9 272 -8 265 -8 c 0
 174 4 106 42 106 139 c 0xfb80
 106 146 106 153 107 160 c 0
 112 185 124 223 151 297 c 0
 172 353 173 358 173 379 c 0
 173 397 171 404 159 404 c 2
 154 404 l 2
 138 404 125 398 110 383 c 0
 89 362 72 329 61 287 c 0
 57 278 60 278 41 278 c 2
 27 278 l 2
 25 280 21 283 21 287 c 0
 21 290 22 294 24 301 c 0
 40 354 68 398 101 421 c 0
 117 433 135 441 161 441 c 0xf580
EndSplineSet
EndChar

StartChar: omega
Encoding: 969 969 91
Width: 622
GlyphClass: 2
Flags: MW
HStem: -11 87<117.5 131 376.5 384>
VStem: 15 46<153.5 154> 99 61 253 55<134.5 156 134.5 156> 264 84 546 58
LayerCount: 2
Fore
SplineSet
495 384 m 0xf4
 495 415 526 443 555 443 c 0
 591 443 604 406 604 364 c 0
 604 354 603 344 602 335 c 0
 597 295 579 221 564 179 c 0
 528 79 478 15 418 -4 c 0
 405 -9 391 -11 377 -11 c 0
 319 -11 284 22 267 66 c 0
 266 68 265 67 260 61 c 0
 231 26 197 2 161 -6 c 0
 149 -9 137 -11 125 -11 c 0
 110 -11 96 -8 82 -3 c 0
 47 13 29 43 19 85 c 0
 16 103 15 115 15 139 c 0
 15 169 18 196 26 230 c 0
 40 296 65 356 99 407 c 0
 112 427 115 430 123 434 c 0
 132 439 139 439 147 436 c 0
 156 431 161 423 160 413 c 0
 159 406 158 404 143 383 c 0
 91 311 70 264 62 208 c 0
 61 202 61 195 61 187 c 0
 61 120 89 76 143 76 c 0
 149 76 155 76 161 77 c 0
 190 82 222 101 245 129 c 2
 253 137 l 1
 253 156 l 2xf4
 254 184 258 211 264 237 c 0
 271 267 283 285 301 294 c 0
 308 297 309 297 317 297 c 0
 338 297 348 282 348 261 c 0xec
 348 255 347 247 345 239 c 0
 339 212 326 176 314 151 c 0
 311 143 308 136 308 135 c 0
 308 134 315 120 319 114 c 0
 335 90 360 76 393 76 c 0
 419 76 442 85 467 107 c 0
 496 133 525 181 539 230 c 0
 545 250 546 255 546 274 c 0
 546 306 533 333 513 351 c 0
 500 364 495 367 495 384 c 0xf4
EndSplineSet
EndChar

StartChar: theta1
Encoding: 977 977 92
Width: 591
GlyphClass: 2
Flags: MW
HStem: -11 37<224.5 256> 318 44<520.5 552> 349 38<426.5 436> 405 37<124.5 138> 668 37<414 422 414 433.5>
VStem: 100 80<75.5 111> 154 79<348 374 344 377.5> 265 39<518.5 544 518.5 546.5> 464 73<531.5 547 479 594>
LayerCount: 2
Fore
SplineSet
233 344 m 1xdb80
 228 290 180 154 180 98 c 0
 180 53 202 26 247 26 c 0
 268 26 284 34 304 55 c 0
 319 70 335 93 351 123 c 0
 369 157 387 203 404 260 c 0
 411 287 427 348 427 349 c 1xbd80
 426 349 421 351 415 353 c 0
 380 367 345 385 324 403 c 0
 292 429 265 468 265 520 c 0
 265 573 285 615 312 648 c 0
 338 678 368 697 402 704 c 0
 406 705 411 705 417 705 c 0
 427 705 438 704 445 702 c 0
 513 681 537 594 537 500 c 0
 537 458 534 429 524 385 c 0
 521 369 520 362 521 362 c 0
 522 362 530 360 540 358 c 0
 558 353 563 355 563 345 c 0
 563 336 557 319 552 318 c 0
 550 318 538 319 521 323 c 2
 510 326 l 1
 482 199 395 64 323 16 c 0
 295 -3 271 -11 241 -11 c 0
 153 -11 100 24 100 105 c 0xdd80
 100 117 102 131 104 145 c 0
 109 180 154 330 154 366 c 0
 154 389 148 405 128 405 c 0
 121 405 115 403 109 398 c 0
 91 384 79 356 61 287 c 0
 57 278 60 278 41 278 c 2
 27 278 l 2
 25 280 21 284 21 287 c 0
 21 290 28 316 34 334 c 0
 47 374 61 400 79 418 c 0
 96 435 111 442 134 442 c 0
 192 442 233 404 233 344 c 1xdb80
464 564 m 0
 464 624 454 668 413 668 c 0
 396 668 377 659 360 645 c 0
 326 616 304 566 304 522 c 0
 304 515 305 509 306 503 c 0
 314 457 353 419 421 391 c 0
 428 389 433 387 435 387 c 2
 436 387 l 1
 451 449 464 499 464 564 c 0
EndSplineSet
EndChar

StartChar: phi1
Encoding: 981 981 93
Width: 596
GlyphClass: 2
Flags: MW
HStem: -10 37<226 244 237 279 237 275> 404 37<336.5 337 333 378 333 381> 674 20G<421 429 429 442 442 442>
VStem: 43 79<161.5 163 113.5 188> 189 36 348 40<440.5 446> 409 39<685 688> 500 79<201 316.5>
LayerCount: 2
Fore
SplineSet
409 688 m 0
 412 693 414 694 421 694 c 2
 429 694 l 1
 442 694 l 2
 444 692 448 688 448 686 c 0
 448 684 435 629 418 563 c 0
 402 497 388 443 388 442 c 0
 388 439 419 444 477 418 c 0
 528 393 561 354 574 302 c 0
 578 288 579 277 579 260 c 0
 579 142 466 25 324 -4 c 0
 310 -7 289 -10 279 -10 c 2
 275 -10 l 1
 251 -105 l 2
 229 -192 227 -201 225 -203 c 0
 222 -205 221 -205 209 -205 c 0
 194 -205 189 -205 189 -198 c 0
 189 -193 193 -177 211 -103 c 2
 234 -11 l 2
 234 -10 231 -10 226 -10 c 0
 222 -9 213 -8 205 -6 c 0
 124 8 65 58 48 128 c 0
 43 145 43 152 43 171 c 0
 43 205 50 234 68 269 c 0
 104 338 175 396 258 424 c 0
 286 433 324 441 342 441 c 0
 347 441 347 441 348 445 c 0
 348 447 362 502 378 567 c 0
 395 632 409 687 409 688 c 0
122 150 m 0
 122 77 167 34 237 27 c 1
 244 27 l 1
 337 404 l 2
 336 404 331 403 327 402 c 0
 261 392 205 357 170 304 c 0
 156 283 147 264 137 237 c 0
 127 206 122 176 122 150 c 0
500 282 m 0
 500 351 457 392 396 402 c 0
 389 403 383 404 381 404 c 2
 378 404 l 1
 332 217 l 2
 306 115 285 30 284 29 c 0
 284 28 284 27 285 27 c 0
 286 27 286 28 288 28 c 0
 311 31 339 38 357 47 c 0
 431 80 478 146 495 238 c 0
 498 254 500 268 500 282 c 0
EndSplineSet
EndChar

StartChar: omega1
Encoding: 982 982 94
Width: 828
GlyphClass: 2
Flags: MW
HStem: -10 72<201.5 211.5 505.5 525.5> 358 71
VStem: 114 45<120.5 125> 411 45<82.5 184> 432 40<285 285> 714 40<284.5 304.5 284.5 307>
LayerCount: 2
Fore
SplineSet
520 -10 m 0xf4
 445 -10 411 45 411 120 c 0
 411 131 410 131 404 122 c 0
 368 63 311 6 238 -8 c 0
 229 -10 217 -10 206 -10 c 0
 197 -10 189 -10 184 -9 c 0
 137 5 114 45 114 110 c 0
 114 140 119 175 128 209 c 0
 141 254 165 303 199 349 c 2
 205 358 l 1
 184 358 l 2
 154 358 140 356 121 347 c 0
 100 337 75 315 61 295 c 0
 54 284 55 284 38 284 c 0
 25 284 19 285 19 294 c 0
 19 297 21 301 29 314 c 0
 60 361 106 420 164 429 c 0
 171 431 361 431 532 431 c 0
 672 431 799 431 803 430 c 0
 814 426 823 417 823 402 c 0
 823 388 813 371 801 364 c 0
 792 359 786 358 766 358 c 0
 756 358 748 358 748 357 c 2
 748 357 749 351 750 344 c 0
 753 329 754 312 754 297 c 0
 754 272 752 259 746 236 c 0
 725 151 683 76 624 28 c 0
 600 9 575 -2 549 -8 c 0
 541 -10 531 -10 520 -10 c 0xf4
714 296 m 0
 714 318 711 341 707 358 c 1
 251 358 l 1
 246 351 l 2
 207 302 178 246 166 197 c 0
 161 177 159 165 159 144 c 0
 159 97 176 62 222 62 c 0
 251 62 275 71 297 84 c 0
 358 121 410 198 432 285 c 0
 436 294 433 294 452 294 c 2
 466 294 l 2
 468 292 472 288 472 286 c 0xec
 472 285 470 277 469 268 c 0
 461 232 456 198 456 170 c 0
 456 109 477 62 534 62 c 0
 577 62 620 88 656 135 c 0
 686 176 714 229 714 296 c 0
EndSplineSet
EndChar

StartChar: uni03F1
Encoding: 1009 1009 95
Width: 517
GlyphClass: 2
Flags: MW
HStem: -169 67<198 315 198 325> -10 36<237 258> 405 37<355.5 365 355.5 379.5>
VStem: 67 45<-54.5 -43.5> 342 44<-186 -145> 424 86<298.5 320.5 216 346>
LayerCount: 2
Fore
SplineSet
205 -174 m 0
 119 -174 67 -155 67 -76 c 0
 67 -11 108 176 127 234 c 0
 137 268 161 313 182 341 c 0
 227 396 284 432 341 441 c 0
 346 441 352 442 359 442 c 0
 371 442 385 441 393 439 c 0
 462 423 510 365 510 276 c 0
 510 156 413 12 280 -9 c 0
 274 -10 263 -10 253 -10 c 0
 190 -10 155 22 133 64 c 0
 131 69 129 73 128 73 c 1
 128 72 121 35 118 18 c 0
 114 -9 112 -27 112 -44 c 0
 112 -65 113 -72 121 -81 c 0
 137 -98 160 -102 236 -102 c 0
 326 -102 361 -107 375 -122 c 0
 383 -130 386 -136 386 -154 c 0
 386 -165 385 -172 384 -178 c 0
 380 -193 380 -194 361 -194 c 2
 348 -194 l 2
 345 -191 342 -189 342 -183 c 0
 344 -170 337 -169 325 -169 c 2
 315 -169 l 2
 278 -169 244 -174 205 -174 c 0
424 322 m 0
 424 370 402 405 357 405 c 0
 311 405 259 362 231 300 c 0
 221 277 215 256 204 217 c 0
 193 172 188 141 188 116 c 0
 188 64 215 26 259 26 c 0
 286 26 310 39 334 62 c 0
 361 87 378 118 393 169 c 0
 404 210 424 275 424 322 c 0
EndSplineSet
EndChar

StartChar: uni03F5
Encoding: 1013 1013 96
Width: 406
GlyphClass: 2
Flags: MW
HStem: -11 37<220.5 235.5 220.5 241.5> 219 46<150 320 138 327> 385 46<329 335>
VStem: 40 88<131 156.5 117.5 208>
LayerCount: 2
Fore
SplineSet
138 217 m 1
 132 197 128 170 128 143 c 0
 128 92 143 62 175 42 c 0
 191 31 210 26 231 26 c 0
 240 26 250 27 259 29 c 0
 281 33 303 43 330 61 c 0
 336 65 342 68 343 68 c 0
 351 68 352 64 355 53 c 0
 359 40 360 38 357 35 c 0
 354 30 330 16 312 8 c 0
 283 -5 256 -11 227 -11 c 0
 199 -11 176 -6 153 3 c 0
 87 28 40 88 40 174 c 0
 40 242 55 281 87 322 c 0
 129 377 200 423 287 430 c 0
 289 431 308 431 329 431 c 2
 367 431 l 1
 376 427 382 422 382 409 c 0
 381 399 372 389 362 386 c 0
 360 385 345 385 325 385 c 0
 307 385 287 385 283 384 c 0
 220 377 175 339 154 277 c 2
 150 265 l 1
 327 265 l 1
 334 260 340 256 340 246 c 0
 340 234 332 224 320 219 c 1
 138 219 l 1
 138 217 l 1
EndSplineSet
EndChar

StartChar: uniEFFD
Encoding: 61437 61437 97
Width: 700
GlyphClass: 2
Flags: MW
HStem: 0 100<0 100 0 100 600 700>
VStem: 0 100<0 100 0 100> 600 100<0 100 0 100>
LayerCount: 2
Fore
SplineSet
0 0 m 1
 0 100 l 1
 100 100 l 1
 100 0 l 1
 0 0 l 1
600 0 m 1
 600 100 l 1
 700 100 l 1
 700 0 l 1
 600 0 l 1
EndSplineSet
EndChar

StartChar: uniEFFE
Encoding: 61438 61438 98
Width: 500
GlyphClass: 2
Flags: MW
HStem: 0 100<0 100 0 100 400 500>
VStem: 0 100<0 100 0 100>
LayerCount: 2
Fore
SplineSet
0 0 m 1
 0 100 l 1
 100 100 l 1
 100 0 l 1
 0 0 l 1
400 0 m 1
 400 100 l 1
 500 100 l 1
 500 0 l 1
 400 0 l 1
EndSplineSet
EndChar

StartChar: uniEFFF
Encoding: 61439 61439 99
Width: 100
GlyphClass: 2
Flags: MW
HStem: 0 100<0 100 0 100>
VStem: 0 100<0 100 0 100>
LayerCount: 2
Fore
SplineSet
0 0 m 1
 0 100 l 1
 100 100 l 1
 100 0 l 1
 0 0 l 1
EndSplineSet
EndChar
